# Blender 5.2.2 LTS
# www.blender.org
mtllib Snowboard.mtl
o Board_hi
v -0.206385 0.264958 0.821499
v -0.187609 0.264925 0.821461
v -0.206385 0.267051 0.823889
v -0.225161 0.264925 0.821461
v -0.206385 0.262709 0.818827
v -0.182713 0.262709 0.818828
v -0.192509 0.266917 0.823739
v -0.220261 0.266917 0.823739
v -0.230057 0.262709 0.818827
v -0.206385 0.269760 0.821499
v -0.206385 0.267666 0.818828
v -0.225161 0.269727 0.821461
v -0.206385 0.271777 0.823889
v -0.187609 0.269727 0.821462
v -0.182713 0.267666 0.818828
v -0.230057 0.267666 0.818828
v -0.220261 0.271646 0.823739
v -0.192509 0.271646 0.823739
v -0.206385 0.220292 0.126305
v -0.138345 0.220292 0.126305
v -0.206385 0.220292 0.176255
v -0.274425 0.220292 0.126305
v -0.206385 0.220292 0.076354
v -0.138626 0.220292 0.076354
v -0.137921 0.220292 0.176255
v -0.274849 0.220292 0.176255
v -0.274144 0.220292 0.076354
v -0.206385 0.220292 0.326107
v -0.136048 0.220292 0.326107
v -0.206385 0.220292 0.376057
v -0.276722 0.220292 0.326107
v -0.206385 0.220292 0.276156
v -0.136773 0.220292 0.276156
v -0.135180 0.220292 0.376057
v -0.277590 0.220292 0.376057
v -0.275997 0.220292 0.276156
v -0.206385 0.220292 0.523567
v -0.131562 0.220292 0.523568
v -0.206385 0.220292 0.566494
v -0.281208 0.220292 0.523567
v -0.206385 0.220292 0.475958
v -0.132880 0.220292 0.475958
v -0.130327 0.220292 0.566494
v -0.282443 0.220292 0.566494
v -0.279890 0.220292 0.475958
v -0.206385 0.230282 0.126305
v -0.206385 0.230282 0.076355
v -0.274425 0.230282 0.126305
v -0.206385 0.230282 0.176256
v -0.138345 0.230282 0.126305
v -0.138626 0.230282 0.076355
v -0.274144 0.230282 0.076354
v -0.274849 0.230282 0.176255
v -0.137921 0.230282 0.176256
v -0.206385 0.230282 0.326107
v -0.206385 0.230282 0.276157
v -0.276722 0.230282 0.326107
v -0.206385 0.230282 0.376058
v -0.136048 0.230282 0.326107
v -0.136773 0.230282 0.276157
v -0.275997 0.230282 0.276156
v -0.277590 0.230282 0.376057
v -0.135180 0.230282 0.376058
v -0.206385 0.230282 0.523568
v -0.206385 0.230282 0.475959
v -0.281208 0.230282 0.523568
v -0.206385 0.230282 0.566494
v -0.131562 0.230282 0.523568
v -0.132880 0.230282 0.475959
v -0.279890 0.230282 0.475958
v -0.282443 0.230282 0.566494
v -0.130327 0.230282 0.566494
v -0.206385 0.222153 0.700736
v -0.130826 0.222153 0.700736
v -0.206385 0.223407 0.713223
v -0.281944 0.222153 0.700736
v -0.206385 0.221322 0.688248
v -0.129679 0.221322 0.688248
v -0.132428 0.223407 0.713223
v -0.280341 0.223407 0.713223
v -0.283091 0.221322 0.688248
v -0.206385 0.232143 0.700736
v -0.206385 0.231312 0.688248
v -0.281945 0.232143 0.700736
v -0.206385 0.233397 0.713223
v -0.130826 0.232143 0.700736
v -0.129679 0.231312 0.688248
v -0.283091 0.231312 0.688248
v -0.280342 0.233397 0.713223
v -0.132429 0.233397 0.713224
v -0.206385 0.230520 0.750296
v -0.140380 0.230520 0.750296
v -0.206385 0.233687 0.761613
v -0.272390 0.230520 0.750296
v -0.206385 0.227628 0.738198
v -0.137257 0.227628 0.738199
v -0.143754 0.233687 0.761613
v -0.269016 0.233687 0.761613
v -0.275513 0.227628 0.738198
v -0.206385 0.240471 0.750296
v -0.206385 0.237618 0.738199
v -0.272390 0.240471 0.750296
v -0.206385 0.243521 0.761613
v -0.140380 0.240471 0.750296
v -0.137257 0.237618 0.738199
v -0.275513 0.237618 0.738198
v -0.269016 0.243521 0.761613
v -0.143754 0.243521 0.761613
v -0.206385 0.220344 0.648444
v -0.128419 0.220344 0.648444
v -0.206385 0.220498 0.663273
v -0.284351 0.220344 0.648444
v -0.206385 0.220292 0.628932
v -0.128688 0.220292 0.628932
v -0.128502 0.220498 0.663273
v -0.284268 0.220498 0.663273
v -0.284082 0.220292 0.628932
v -0.206385 0.230334 0.648444
v -0.206385 0.230282 0.628932
v -0.284351 0.230334 0.648444
v -0.206385 0.230488 0.663273
v -0.128419 0.230334 0.648444
v -0.128688 0.230282 0.628932
v -0.284082 0.230282 0.628932
v -0.284268 0.230488 0.663273
v -0.128502 0.230488 0.663273
v -0.206385 0.243201 0.787622
v -0.153967 0.243201 0.787622
v -0.206385 0.246222 0.793845
v -0.258803 0.243201 0.787622
v -0.206385 0.240113 0.780344
v -0.150589 0.240113 0.780344
v -0.157426 0.246222 0.793845
v -0.255344 0.246222 0.793845
v -0.262181 0.240113 0.780344
v -0.206385 0.251901 0.787622
v -0.206385 0.249323 0.780344
v -0.258803 0.251901 0.787622
v -0.206385 0.254329 0.793845
v -0.153967 0.251901 0.787622
v -0.150589 0.249323 0.780345
v -0.262181 0.249323 0.780344
v -0.255344 0.254329 0.793845
v -0.157426 0.254329 0.793845
v -0.206385 0.254961 0.808499
v -0.169025 0.254961 0.808499
v -0.206385 0.257699 0.812377
v -0.243745 0.254961 0.808499
v -0.206385 0.252112 0.804140
v -0.164918 0.252112 0.804140
v -0.173365 0.257699 0.812377
v -0.239405 0.257699 0.812377
v -0.247852 0.252112 0.804140
v -0.206385 0.261164 0.808499
v -0.206385 0.258932 0.804140
v -0.243745 0.261164 0.808499
v -0.206385 0.263358 0.812377
v -0.169025 0.261164 0.808499
v -0.164918 0.258932 0.804140
v -0.247852 0.258932 0.804140
v -0.239405 0.263358 0.812377
v -0.173365 0.263358 0.812378
v -0.206385 0.264958 -0.768691
v -0.206385 0.262709 -0.766020
v -0.225161 0.264925 -0.768653
v -0.206385 0.267051 -0.771081
v -0.187609 0.264925 -0.768653
v -0.182713 0.262709 -0.766020
v -0.230057 0.262709 -0.766019
v -0.220261 0.266917 -0.770931
v -0.192509 0.266917 -0.770931
v -0.206385 0.269760 -0.768691
v -0.187609 0.269727 -0.768654
v -0.206385 0.271777 -0.771081
v -0.225161 0.269727 -0.768653
v -0.206385 0.267666 -0.766020
v -0.182713 0.267666 -0.766020
v -0.192509 0.271646 -0.770931
v -0.220261 0.271646 -0.770931
v -0.230057 0.267666 -0.766020
v -0.206385 0.220292 -0.073497
v -0.206385 0.220292 -0.023546
v -0.274425 0.220292 -0.073497
v -0.206385 0.220292 -0.123447
v -0.138345 0.220292 -0.073497
v -0.138626 0.220292 -0.023546
v -0.274144 0.220292 -0.023546
v -0.274849 0.220292 -0.123447
v -0.137921 0.220292 -0.123447
v -0.206385 0.220292 -0.273299
v -0.206385 0.220292 -0.223348
v -0.276722 0.220292 -0.273299
v -0.206385 0.220292 -0.323249
v -0.136048 0.220292 -0.273299
v -0.136773 0.220292 -0.223348
v -0.275997 0.220292 -0.223348
v -0.277590 0.220292 -0.323249
v -0.135180 0.220292 -0.323249
v -0.206385 0.220292 -0.470759
v -0.206385 0.220292 -0.423150
v -0.281208 0.220292 -0.470759
v -0.206385 0.220292 -0.513686
v -0.131562 0.220292 -0.470760
v -0.132880 0.220292 -0.423150
v -0.279890 0.220292 -0.423150
v -0.282443 0.220292 -0.513686
v -0.130327 0.220292 -0.513686
v -0.206385 0.230282 -0.073497
v -0.138345 0.230282 -0.073497
v -0.206385 0.230282 -0.123448
v -0.274425 0.230282 -0.073497
v -0.206385 0.230282 -0.023547
v -0.138626 0.230282 -0.023547
v -0.137921 0.230282 -0.123448
v -0.274849 0.230282 -0.123447
v -0.274144 0.230282 -0.023546
v -0.206385 0.230282 -0.273299
v -0.136048 0.230282 -0.273299
v -0.206385 0.230282 -0.323250
v -0.276722 0.230282 -0.273299
v -0.206385 0.230282 -0.223349
v -0.136773 0.230282 -0.223349
v -0.135180 0.230282 -0.323250
v -0.277590 0.230282 -0.323249
v -0.275997 0.230282 -0.223348
v -0.206385 0.230282 -0.470760
v -0.131562 0.230282 -0.470760
v -0.206385 0.230282 -0.513686
v -0.281208 0.230282 -0.470760
v -0.206385 0.230282 -0.423151
v -0.132880 0.230282 -0.423151
v -0.130327 0.230282 -0.513686
v -0.282443 0.230282 -0.513686
v -0.279890 0.230282 -0.423150
v -0.206385 0.222153 -0.647928
v -0.206385 0.221322 -0.635440
v -0.281944 0.222153 -0.647928
v -0.206385 0.223407 -0.660415
v -0.130826 0.222153 -0.647928
v -0.129679 0.221322 -0.635440
v -0.283091 0.221322 -0.635440
v -0.280341 0.223407 -0.660415
v -0.132428 0.223407 -0.660415
v -0.206385 0.232143 -0.647928
v -0.130826 0.232143 -0.647928
v -0.206385 0.233397 -0.660415
v -0.281945 0.232143 -0.647928
v -0.206385 0.231312 -0.635440
v -0.129679 0.231312 -0.635440
v -0.132429 0.233397 -0.660416
v -0.280342 0.233397 -0.660415
v -0.283091 0.231312 -0.635440
v -0.206385 0.230520 -0.697488
v -0.206385 0.227628 -0.685391
v -0.272390 0.230520 -0.697488
v -0.206385 0.233687 -0.708805
v -0.140380 0.230520 -0.697488
v -0.137257 0.227628 -0.685391
v -0.275513 0.227628 -0.685390
v -0.269016 0.233687 -0.708805
v -0.143754 0.233687 -0.708805
v -0.206385 0.240471 -0.697488
v -0.140380 0.240471 -0.697488
v -0.206385 0.243521 -0.708805
v -0.272390 0.240471 -0.697488
v -0.206385 0.237618 -0.685391
v -0.137257 0.237618 -0.685391
v -0.143754 0.243521 -0.708805
v -0.269016 0.243521 -0.708805
v -0.275513 0.237618 -0.685391
v -0.206385 0.220344 -0.595636
v -0.206385 0.220292 -0.576124
v -0.284351 0.220344 -0.595636
v -0.206385 0.220498 -0.610465
v -0.128419 0.220344 -0.595636
v -0.128688 0.220292 -0.576124
v -0.284082 0.220292 -0.576124
v -0.284268 0.220498 -0.610465
v -0.128502 0.220498 -0.610465
v -0.206385 0.230334 -0.595636
v -0.128419 0.230334 -0.595636
v -0.206385 0.230488 -0.610465
v -0.284351 0.230334 -0.595636
v -0.206385 0.230282 -0.576124
v -0.128688 0.230282 -0.576124
v -0.128502 0.230488 -0.610465
v -0.284268 0.230488 -0.610465
v -0.284082 0.230282 -0.576124
v -0.206385 0.243201 -0.734814
v -0.206385 0.240113 -0.727536
v -0.258803 0.243201 -0.734814
v -0.206385 0.246222 -0.741037
v -0.153967 0.243201 -0.734814
v -0.150589 0.240113 -0.727536
v -0.262181 0.240113 -0.727536
v -0.255344 0.246222 -0.741037
v -0.157426 0.246222 -0.741037
v -0.206385 0.251901 -0.734814
v -0.153967 0.251901 -0.734814
v -0.206385 0.254329 -0.741037
v -0.258803 0.251901 -0.734814
v -0.206385 0.249323 -0.727536
v -0.150589 0.249323 -0.727537
v -0.157426 0.254329 -0.741037
v -0.255344 0.254329 -0.741037
v -0.262181 0.249323 -0.727536
v -0.206385 0.254961 -0.755691
v -0.206385 0.252112 -0.751332
v -0.243745 0.254961 -0.755691
v -0.206385 0.257699 -0.759569
v -0.169025 0.254961 -0.755691
v -0.164918 0.252112 -0.751332
v -0.247852 0.252112 -0.751332
v -0.239405 0.257699 -0.759569
v -0.173365 0.257699 -0.759569
v -0.206385 0.261164 -0.755691
v -0.169025 0.261164 -0.755691
v -0.206385 0.263358 -0.759569
v -0.243745 0.261164 -0.755691
v -0.206385 0.258932 -0.751332
v -0.164918 0.258932 -0.751332
v -0.173365 0.263358 -0.759570
v -0.239405 0.263358 -0.759569
v -0.247852 0.258932 -0.751332
v -0.159041 0.262709 0.818828
v -0.168832 0.264858 0.821387
v -0.178634 0.266648 0.823439
v -0.197413 0.268798 0.825838
v -0.206385 0.269066 0.826138
v -0.215358 0.268798 0.825838
v -0.159041 0.267666 0.818828
v -0.168832 0.269661 0.821387
v -0.178634 0.271382 0.823440
v -0.197413 0.273492 0.825838
v -0.206385 0.273756 0.826138
v -0.215358 0.273492 0.825838
v -0.069457 0.220292 0.176256
v -0.070306 0.220292 0.126305
v -0.070867 0.220292 0.076355
v -0.063974 0.220292 0.376058
v -0.065711 0.220292 0.326107
v -0.067160 0.220292 0.276157
v -0.054269 0.220292 0.566494
v -0.056740 0.220292 0.523568
v -0.059375 0.220292 0.475959
v -0.253729 0.262709 0.818827
v -0.243938 0.264858 0.821386
v -0.234136 0.266648 0.823439
v -0.353395 0.220292 0.475958
v -0.356030 0.220292 0.523567
v -0.358501 0.220292 0.566494
v -0.345610 0.220292 0.276156
v -0.347059 0.220292 0.326107
v -0.348796 0.220292 0.376057
v -0.341903 0.220292 0.076354
v -0.342464 0.220292 0.126305
v -0.343313 0.220292 0.176255
v -0.069457 0.230282 0.176256
v -0.070306 0.230282 0.126305
v -0.070867 0.230282 0.076355
v -0.063974 0.230282 0.376058
v -0.065711 0.230282 0.326107
v -0.067160 0.230282 0.276157
v -0.054269 0.230282 0.566494
v -0.056740 0.230282 0.523568
v -0.059375 0.230282 0.475959
v -0.253729 0.267666 0.818827
v -0.243938 0.269661 0.821386
v -0.234136 0.271382 0.823439
v -0.353395 0.230282 0.475958
v -0.356030 0.230282 0.523567
v -0.358501 0.230282 0.566494
v -0.345610 0.230282 0.276156
v -0.347059 0.230282 0.326107
v -0.348796 0.230282 0.376057
v -0.341903 0.230282 0.076354
v -0.342464 0.230282 0.126305
v -0.343313 0.230282 0.176255
v -0.138730 0.220292 0.026404
v -0.206385 0.220292 0.026404
v -0.274040 0.220292 0.026404
v -0.137386 0.220292 0.226206
v -0.206385 0.220292 0.226206
v -0.275384 0.220292 0.226206
v -0.134135 0.220292 0.426008
v -0.206385 0.220292 0.426008
v -0.278635 0.220292 0.426008
v -0.129320 0.220292 0.602396
v -0.206385 0.220292 0.602396
v -0.283450 0.220292 0.602396
v -0.274040 0.230282 0.026404
v -0.206385 0.230282 0.026404
v -0.138730 0.230282 0.026404
v -0.275384 0.230282 0.226206
v -0.206385 0.230282 0.226206
v -0.137386 0.230282 0.226206
v -0.278635 0.230282 0.426008
v -0.206385 0.230282 0.426008
v -0.134135 0.230282 0.426008
v -0.283450 0.230282 0.602396
v -0.206385 0.230282 0.602396
v -0.129320 0.230282 0.602396
v -0.050618 0.220498 0.663273
v -0.050452 0.220344 0.648444
v -0.050991 0.220292 0.628932
v -0.050618 0.230488 0.663273
v -0.050452 0.230334 0.648444
v -0.050991 0.230282 0.628932
v -0.134551 0.225196 0.725711
v -0.206385 0.225196 0.725711
v -0.278219 0.225196 0.725711
v -0.278219 0.235186 0.725711
v -0.206385 0.235186 0.725711
v -0.134551 0.235186 0.725711
v -0.081123 0.233687 0.761613
v -0.074375 0.230520 0.750296
v -0.068129 0.227628 0.738199
v -0.081123 0.243521 0.761613
v -0.074375 0.240471 0.750297
v -0.068129 0.237618 0.738199
v -0.147212 0.236946 0.771759
v -0.206385 0.236946 0.771759
v -0.265558 0.236946 0.771759
v -0.265558 0.246546 0.771759
v -0.206385 0.246546 0.771759
v -0.147212 0.246546 0.771759
v -0.052973 0.221322 0.688248
v -0.055266 0.222153 0.700736
v -0.058472 0.223407 0.713223
v -0.052973 0.231312 0.688249
v -0.055266 0.232143 0.700736
v -0.058472 0.233398 0.713224
v -0.359797 0.221322 0.688248
v -0.357504 0.222153 0.700736
v -0.354298 0.223407 0.713223
v -0.359797 0.231312 0.688248
v -0.357504 0.232143 0.700735
v -0.354298 0.233397 0.713223
v -0.128926 0.220807 0.675760
v -0.206385 0.220807 0.675760
v -0.283844 0.220807 0.675760
v -0.283845 0.230797 0.675760
v -0.206385 0.230797 0.675761
v -0.128926 0.230797 0.675761
v -0.108467 0.246222 0.793845
v -0.101548 0.243201 0.787622
v -0.094794 0.240113 0.780344
v -0.108467 0.254329 0.793845
v -0.101548 0.251901 0.787622
v -0.094794 0.249323 0.780345
v -0.161049 0.249188 0.799266
v -0.206385 0.249188 0.799266
v -0.251721 0.249188 0.799266
v -0.251721 0.256657 0.799266
v -0.206385 0.256657 0.799266
v -0.161049 0.256657 0.799267
v -0.140344 0.257699 0.812377
v -0.131665 0.254961 0.808499
v -0.123450 0.252112 0.804140
v -0.140344 0.263358 0.812378
v -0.131665 0.261164 0.808499
v -0.123451 0.258932 0.804140
v -0.177930 0.260293 0.815809
v -0.206385 0.260293 0.815809
v -0.234840 0.260293 0.815809
v -0.234840 0.265523 0.815809
v -0.206385 0.265523 0.815809
v -0.177930 0.265523 0.815809
v -0.159041 0.262709 -0.766020
v -0.168832 0.264858 -0.768579
v -0.178634 0.266648 -0.770631
v -0.197413 0.268798 -0.773030
v -0.206385 0.269066 -0.773330
v -0.215358 0.268798 -0.773030
v -0.159041 0.267666 -0.766020
v -0.168832 0.269661 -0.768579
v -0.178634 0.271382 -0.770632
v -0.197413 0.273492 -0.773030
v -0.206385 0.273756 -0.773330
v -0.215358 0.273492 -0.773030
v -0.069457 0.220292 -0.123448
v -0.070306 0.220292 -0.073497
v -0.070867 0.220292 -0.023547
v -0.063974 0.220292 -0.323250
v -0.065711 0.220292 -0.273299
v -0.067160 0.220292 -0.223349
v -0.054269 0.220292 -0.513686
v -0.056740 0.220292 -0.470760
v -0.059375 0.220292 -0.423151
v -0.253729 0.262709 -0.766019
v -0.243938 0.264858 -0.768578
v -0.234136 0.266648 -0.770631
v -0.353395 0.220292 -0.423150
v -0.356030 0.220292 -0.470759
v -0.358501 0.220292 -0.513686
v -0.345610 0.220292 -0.223348
v -0.347059 0.220292 -0.273299
v -0.348796 0.220292 -0.323249
v -0.341903 0.220292 -0.023546
v -0.342464 0.220292 -0.073497
v -0.343313 0.220292 -0.123447
v -0.069457 0.230282 -0.123448
v -0.070306 0.230282 -0.073497
v -0.070867 0.230282 -0.023547
v -0.063974 0.230282 -0.323250
v -0.065711 0.230282 -0.273299
v -0.067160 0.230282 -0.223349
v -0.054269 0.230282 -0.513686
v -0.056740 0.230282 -0.470760
v -0.059375 0.230282 -0.423151
v -0.253729 0.267666 -0.766019
v -0.243938 0.269661 -0.768578
v -0.234136 0.271382 -0.770631
v -0.353395 0.230282 -0.423150
v -0.356030 0.230282 -0.470759
v -0.358501 0.230282 -0.513686
v -0.345610 0.230282 -0.223348
v -0.347059 0.230282 -0.273299
v -0.348796 0.230282 -0.323249
v -0.341903 0.230282 -0.023546
v -0.342464 0.230282 -0.073497
v -0.343313 0.230282 -0.123447
v -0.137386 0.220292 -0.173398
v -0.206385 0.220292 -0.173398
v -0.275384 0.220292 -0.173398
v -0.134135 0.220292 -0.373200
v -0.206385 0.220292 -0.373200
v -0.278635 0.220292 -0.373200
v -0.129320 0.220292 -0.549588
v -0.206385 0.220292 -0.549588
v -0.283450 0.220292 -0.549588
v -0.275384 0.230282 -0.173398
v -0.206385 0.230282 -0.173398
v -0.137386 0.230282 -0.173398
v -0.278635 0.230282 -0.373200
v -0.206385 0.230282 -0.373200
v -0.134135 0.230282 -0.373200
v -0.283450 0.230282 -0.549588
v -0.206385 0.230282 -0.549588
v -0.129320 0.230282 -0.549588
v -0.050618 0.220498 -0.610465
v -0.050452 0.220344 -0.595636
v -0.050991 0.220292 -0.576124
v -0.050618 0.230488 -0.610465
v -0.050452 0.230334 -0.595636
v -0.050991 0.230282 -0.576124
v -0.134551 0.225196 -0.672903
v -0.206385 0.225196 -0.672903
v -0.278219 0.225196 -0.672903
v -0.278219 0.235186 -0.672903
v -0.206385 0.235186 -0.672903
v -0.134551 0.235186 -0.672903
v -0.081123 0.233687 -0.708805
v -0.074375 0.230520 -0.697488
v -0.068129 0.227628 -0.685391
v -0.081123 0.243521 -0.708805
v -0.074375 0.240471 -0.697489
v -0.068129 0.237618 -0.685391
v -0.147212 0.236946 -0.718951
v -0.206385 0.236946 -0.718951
v -0.265558 0.236946 -0.718951
v -0.265558 0.246546 -0.718951
v -0.206385 0.246546 -0.718951
v -0.147212 0.246546 -0.718951
v -0.052973 0.221322 -0.635440
v -0.055266 0.222153 -0.647928
v -0.058472 0.223407 -0.660415
v -0.052973 0.231312 -0.635441
v -0.055266 0.232143 -0.647928
v -0.058472 0.233398 -0.660416
v -0.359797 0.221322 -0.635440
v -0.357504 0.222153 -0.647928
v -0.354298 0.223407 -0.660415
v -0.359797 0.231312 -0.635440
v -0.357504 0.232143 -0.647927
v -0.354298 0.233397 -0.660415
v -0.128926 0.220807 -0.622952
v -0.206385 0.220807 -0.622952
v -0.283844 0.220807 -0.622952
v -0.283845 0.230797 -0.622952
v -0.206385 0.230797 -0.622953
v -0.128926 0.230797 -0.622953
v -0.108467 0.246222 -0.741037
v -0.101548 0.243201 -0.734814
v -0.094794 0.240113 -0.727536
v -0.108467 0.254329 -0.741037
v -0.101548 0.251901 -0.734814
v -0.094794 0.249323 -0.727537
v -0.161049 0.249188 -0.746458
v -0.206385 0.249188 -0.746458
v -0.251721 0.249188 -0.746458
v -0.251721 0.256657 -0.746458
v -0.206385 0.256657 -0.746458
v -0.161049 0.256657 -0.746459
v -0.140344 0.257699 -0.759569
v -0.131665 0.254961 -0.755691
v -0.123450 0.252112 -0.751332
v -0.140344 0.263358 -0.759570
v -0.131665 0.261164 -0.755691
v -0.123451 0.258932 -0.751332
v -0.177930 0.260293 -0.763001
v -0.206385 0.260293 -0.763001
v -0.234840 0.260293 -0.763001
v -0.234840 0.265523 -0.763001
v -0.206385 0.265523 -0.763001
v -0.177930 0.265523 -0.763001
v -0.362152 0.220498 0.663273
v -0.362318 0.220344 0.648444
v -0.361779 0.220292 0.628932
v -0.362152 0.230488 0.663273
v -0.362318 0.230334 0.648444
v -0.361779 0.230282 0.628932
v -0.331647 0.233687 0.761613
v -0.338395 0.230520 0.750296
v -0.344641 0.227628 0.738198
v -0.331647 0.243521 0.761613
v -0.338395 0.240471 0.750296
v -0.344641 0.237618 0.738198
v -0.304303 0.246222 0.793845
v -0.311222 0.243201 0.787622
v -0.317976 0.240113 0.780344
v -0.304303 0.254329 0.793844
v -0.311222 0.251901 0.787622
v -0.317976 0.249323 0.780344
v -0.272426 0.257699 0.812377
v -0.281105 0.254961 0.808499
v -0.289320 0.252112 0.804140
v -0.272426 0.263358 0.812377
v -0.281105 0.261164 0.808499
v -0.289320 0.258932 0.804139
v -0.362152 0.220498 -0.610465
v -0.362318 0.220344 -0.595636
v -0.361779 0.220292 -0.576124
v -0.362152 0.230488 -0.610465
v -0.362318 0.230334 -0.595636
v -0.361779 0.230282 -0.576124
v -0.331647 0.233687 -0.708805
v -0.338395 0.230520 -0.697488
v -0.344641 0.227628 -0.685390
v -0.331647 0.243521 -0.708805
v -0.338395 0.240471 -0.697488
v -0.344641 0.237618 -0.685390
v -0.304303 0.246222 -0.741037
v -0.311222 0.243201 -0.734814
v -0.317976 0.240113 -0.727536
v -0.304303 0.254329 -0.741036
v -0.311222 0.251901 -0.734814
v -0.317976 0.249323 -0.727536
v -0.272426 0.257699 -0.759569
v -0.281105 0.254961 -0.755691
v -0.289320 0.252112 -0.751332
v -0.272426 0.263358 -0.759569
v -0.281105 0.261164 -0.755691
v -0.289320 0.258932 -0.751331
v -0.188232 0.267992 0.824939
v -0.224538 0.267992 0.824938
v -0.068387 0.220292 0.226206
v -0.061884 0.220292 0.426008
v -0.052255 0.220292 0.602396
v -0.360515 0.220292 0.602396
v -0.350886 0.220292 0.426008
v -0.344383 0.220292 0.226206
v -0.068387 0.230282 0.226206
v -0.061884 0.230282 0.426008
v -0.052255 0.230282 0.602396
v -0.360515 0.230282 0.602395
v -0.350886 0.230282 0.426008
v -0.344383 0.230282 0.226206
v -0.062717 0.225196 0.725711
v -0.062718 0.235186 0.725711
v -0.350053 0.225196 0.725711
v -0.350053 0.235186 0.725711
v -0.088040 0.236946 0.771759
v -0.088040 0.246546 0.771760
v -0.051466 0.220807 0.675760
v -0.051466 0.230797 0.675761
v -0.115713 0.249188 0.799266
v -0.115713 0.256657 0.799267
v -0.149474 0.260293 0.815809
v -0.149474 0.265523 0.815809
v -0.263296 0.260293 0.815809
v -0.263296 0.265523 0.815809
v -0.188232 0.267992 -0.772131
v -0.224538 0.267992 -0.772130
v -0.071075 0.220292 0.026404
v -0.068387 0.220292 -0.173398
v -0.061884 0.220292 -0.373200
v -0.052255 0.220292 -0.549588
v -0.360515 0.220292 -0.549588
v -0.350886 0.220292 -0.373200
v -0.344383 0.220292 -0.173398
v -0.341694 0.220292 0.026404
v -0.071075 0.230282 0.026404
v -0.068387 0.230282 -0.173398
v -0.061884 0.230282 -0.373200
v -0.052255 0.230282 -0.549588
v -0.360515 0.230282 -0.549587
v -0.350886 0.230282 -0.373200
v -0.344383 0.230282 -0.173398
v -0.341695 0.230282 0.026404
v -0.062717 0.225196 -0.672903
v -0.062718 0.235186 -0.672903
v -0.350053 0.225196 -0.672903
v -0.350053 0.235186 -0.672903
v -0.088040 0.236946 -0.718951
v -0.088040 0.246546 -0.718952
v -0.051466 0.220807 -0.622952
v -0.051466 0.230797 -0.622953
v -0.115713 0.249188 -0.746458
v -0.115713 0.256657 -0.746459
v -0.149474 0.260293 -0.763001
v -0.149474 0.265523 -0.763001
v -0.263296 0.260293 -0.763001
v -0.263296 0.265523 -0.763001
v -0.188232 0.272701 0.824939
v -0.224538 0.272701 0.824938
v -0.361304 0.220807 0.675760
v -0.361304 0.230797 0.675760
v -0.324730 0.236946 0.771759
v -0.324730 0.246546 0.771759
v -0.297057 0.249188 0.799266
v -0.297057 0.256657 0.799266
v -0.188232 0.272701 -0.772131
v -0.224538 0.272701 -0.772130
v -0.361304 0.220807 -0.622952
v -0.361304 0.230797 -0.622952
v -0.324730 0.236946 -0.718951
v -0.324730 0.246546 -0.718951
v -0.297057 0.249188 -0.746458
v -0.297057 0.256657 -0.746458
vn -0.0000 -0.7589 0.6512
vn -0.0000 -0.7730 0.6344
vn -0.0000 -0.7732 0.6342
vn -0.0001 -0.7593 0.6507
vn 0.1587 -0.4297 0.8889
vn 0.1303 -0.4181 0.8990
vn -0.0000 -0.7893 0.6140
vn 0.1887 -0.4431 0.8764
vn -0.0000 -0.7487 0.6629
vn -0.0000 -0.7486 0.6630
vn 0.0373 -0.3987 0.9163
vn -0.0000 -0.3982 0.9173
vn 0.1019 -0.4078 0.9074
vn 0.0716 -0.4004 0.9136
vn 0.0001 -0.7593 0.6507
vn -0.1019 -0.4081 0.9072
vn -0.1304 -0.4178 0.8991
vn -0.0374 -0.3987 0.9163
vn -0.0716 -0.4006 0.9135
vn -0.0000 -0.7731 0.6342
vn -0.1586 -0.4296 0.8890
vn -0.1887 -0.4431 0.8764
vn -0.0000 0.7760 -0.6307
vn 0.0002 0.7768 -0.6298
vn 0.0001 0.8020 -0.5973
vn -0.0000 0.8016 -0.5979
vn -0.0000 0.8309 -0.5564
vn 0.2547 0.8770 0.4074
vn 0.2936 0.8621 0.4130
vn 0.3285 0.8454 0.4212
vn -0.0001 0.8019 -0.5974
vn -0.0002 0.7767 -0.6298
vn -0.2936 0.8622 0.4129
vn -0.2547 0.8771 0.4073
vn -0.3284 0.8454 0.4213
vn -0.0001 0.7578 -0.6525
vn -0.0000 0.7577 -0.6527
vn -0.0782 0.9052 0.4177
vn -0.0000 0.9069 0.4213
vn -0.2082 0.8901 0.4055
vn -0.1499 0.9008 0.4076
vn 0.0001 0.7579 -0.6524
vn 0.2083 0.8901 0.4055
vn 0.0782 0.9052 0.4176
vn 0.1499 0.9007 0.4077
vn -0.0000 -1.0000 -0.0000
vn 0.7063 -0.7079 -0.0054
vn 0.7064 -0.7078 -0.0100
vn 0.7062 -0.7080 -0.0000
vn 0.7065 -0.7076 -0.0136
vn 0.7066 -0.7075 -0.0162
vn -0.7065 -0.7076 -0.0136
vn -0.7064 -0.7078 -0.0100
vn -0.7066 -0.7075 -0.0162
vn -0.7063 -0.7079 -0.0054
vn -0.7061 -0.7081 -0.0000
vn 0.7064 -0.7076 -0.0189
vn 0.7061 -0.7078 -0.0225
vn 0.7058 -0.7079 -0.0270
vn 0.7054 -0.7080 -0.0325
vn -0.7058 -0.7079 -0.0270
vn -0.7061 -0.7078 -0.0225
vn -0.7054 -0.7080 -0.0325
vn -0.7064 -0.7076 -0.0189
vn 0.7055 -0.7077 -0.0372
vn 0.7057 -0.7074 -0.0398
vn 0.7061 -0.7069 -0.0401
vn 0.7071 -0.7062 -0.0367
vn -0.7061 -0.7069 -0.0401
vn -0.7057 -0.7074 -0.0398
vn -0.7071 -0.7062 -0.0367
vn -0.7055 -0.7077 -0.0372
vn -0.0000 1.0000 -0.0000
vn 0.7064 0.7078 -0.0100
vn 0.7063 0.7079 -0.0054
vn 0.7062 0.7080 -0.0000
vn -0.7063 0.7079 -0.0054
vn -0.7064 0.7078 -0.0100
vn -0.7062 0.7080 -0.0000
vn -0.7065 0.7076 -0.0136
vn -0.7066 0.7075 -0.0162
vn 0.7065 0.7076 -0.0136
vn 0.7066 0.7075 -0.0162
vn 0.7061 0.7078 -0.0225
vn 0.7064 0.7076 -0.0189
vn -0.7064 0.7076 -0.0189
vn -0.7061 0.7078 -0.0225
vn -0.7058 0.7079 -0.0270
vn -0.7054 0.7080 -0.0325
vn 0.7058 0.7079 -0.0270
vn 0.7054 0.7080 -0.0325
vn 0.7057 0.7074 -0.0398
vn 0.7055 0.7077 -0.0372
vn -0.7055 0.7077 -0.0372
vn -0.7057 0.7074 -0.0398
vn -0.7061 0.7069 -0.0401
vn -0.7071 0.7062 -0.0367
vn 0.7061 0.7069 -0.0401
vn 0.7071 0.7062 -0.0367
vn -0.0000 -0.9965 0.0832
vn -0.0000 -0.9986 0.0538
vn 0.7004 -0.6993 0.1425
vn 0.6890 -0.6947 0.2065
vn -0.0000 -0.9995 0.0330
vn 0.7069 -0.7017 0.0890
vn -0.0000 -0.9927 0.1209
vn -0.0000 -0.9860 0.1665
vn 0.6711 -0.6870 0.2787
vn 0.6461 -0.6750 0.3562
vn -0.6711 -0.6870 0.2787
vn -0.6890 -0.6947 0.2065
vn -0.6461 -0.6750 0.3562
vn -0.7005 -0.6993 0.1425
vn -0.7069 -0.7017 0.0890
vn -0.0000 0.9965 -0.0832
vn -0.0000 0.9986 -0.0538
vn -0.0000 0.9995 -0.0330
vn 0.7074 0.6997 0.1001
vn 0.7112 0.6993 0.0720
vn 0.7126 0.7001 0.0448
vn -0.7112 0.6993 0.0720
vn -0.7074 0.6997 0.1001
vn -0.7126 0.7001 0.0448
vn -0.0000 0.9927 -0.1209
vn -0.0000 0.9860 -0.1665
vn -0.7009 0.7016 0.1283
vn -0.6915 0.7055 0.1552
vn 0.7009 0.7016 0.1283
vn 0.6915 0.7056 0.1552
vn -0.0000 -0.9680 0.2510
vn -0.0000 -0.9773 0.2119
vn 0.6168 -0.6603 0.4283
vn 0.5886 -0.6454 0.4869
vn -0.0000 -0.9577 0.2877
vn -0.0000 -0.9454 0.3260
vn 0.5602 -0.6297 0.5382
vn 0.5289 -0.6119 0.5881
vn -0.5602 -0.6297 0.5383
vn -0.5886 -0.6453 0.4869
vn -0.5289 -0.6118 0.5881
vn -0.6168 -0.6603 0.4284
vn -0.0000 0.9695 -0.2449
vn -0.0000 0.9776 -0.2104
vn 0.6644 0.7216 0.1944
vn 0.6777 0.7142 0.1752
vn -0.6777 0.7142 0.1752
vn -0.6644 0.7217 0.1944
vn -0.0000 0.9620 -0.2730
vn -0.0000 0.9550 -0.2968
vn -0.6500 0.7286 0.2159
vn -0.6320 0.7357 0.2435
vn 0.6500 0.7286 0.2159
vn 0.6321 0.7357 0.2435
vn -0.0000 -1.0000 0.0065
vn -0.0000 -1.0000 0.0013
vn 0.7086 -0.7052 -0.0257
vn 0.7106 -0.7036 -0.0013
vn -0.0000 -0.9998 0.0176
vn 0.7110 -0.7021 0.0401
vn -0.7110 -0.7021 0.0401
vn -0.7106 -0.7036 -0.0013
vn -0.7086 -0.7052 -0.0257
vn -0.0000 1.0000 -0.0065
vn -0.0000 1.0000 -0.0013
vn 0.7122 0.7019 -0.0104
vn 0.7091 0.7045 -0.0276
vn -0.7091 0.7045 -0.0276
vn -0.7122 0.7019 -0.0104
vn -0.0000 0.9998 -0.0176
vn -0.7146 0.6993 0.0163
vn 0.7146 0.6993 0.0163
vn -0.0000 -0.9104 0.4138
vn -0.0000 -0.9296 0.3684
vn -0.0000 -0.9296 0.3685
vn 0.4915 -0.5901 0.6405
vn 0.4462 -0.5653 0.6938
vn -0.0000 -0.8887 0.4585
vn -0.0000 -0.8676 0.4973
vn 0.3961 -0.5394 0.7431
vn 0.3468 -0.5155 0.7836
vn -0.3961 -0.5394 0.7431
vn -0.4462 -0.5653 0.6938
vn -0.3468 -0.5155 0.7836
vn -0.4915 -0.5901 0.6405
vn -0.0000 0.9372 -0.3487
vn -0.0000 0.9471 -0.3209
vn 0.5741 0.7546 0.3177
vn 0.6075 0.7436 0.2794
vn -0.6075 0.7436 0.2794
vn -0.5741 0.7546 0.3177
vn -0.0000 0.9254 -0.3791
vn -0.0000 0.9126 -0.4088
vn -0.5336 0.7685 0.3532
vn -0.4904 0.7839 0.3808
vn 0.5336 0.7684 0.3532
vn 0.4904 0.7839 0.3809
vn -0.0000 -0.8271 0.5620
vn -0.0000 -0.8475 0.5309
vn 0.3019 -0.4953 0.8146
vn 0.2602 -0.4761 0.8400
vn -0.0000 -0.8074 0.5899
vn 0.2224 -0.4587 0.8603
vn -0.2224 -0.4586 0.8603
vn -0.2602 -0.4761 0.8400
vn -0.3019 -0.4952 0.8146
vn -0.0000 0.8804 -0.4742
vn -0.0000 0.8804 -0.4741
vn -0.0000 0.8983 -0.4395
vn -0.0000 0.8983 -0.4394
vn 0.4050 0.8136 0.4172
vn 0.4471 0.7984 0.4032
vn -0.4471 0.7984 0.4032
vn -0.4050 0.8136 0.4172
vn -0.0000 0.8583 -0.5131
vn -0.3651 0.8292 0.4232
vn 0.3652 0.8293 0.4230
vn -0.0000 -0.7588 -0.6513
vn -0.0001 -0.7593 -0.6508
vn -0.0000 -0.7732 -0.6342
vn -0.0000 -0.7730 -0.6345
vn -0.0000 -0.7893 -0.6140
vn 0.1303 -0.4181 -0.8990
vn 0.1587 -0.4297 -0.8889
vn 0.1887 -0.4431 -0.8764
vn 0.0001 -0.7593 -0.6507
vn -0.1586 -0.4296 -0.8890
vn -0.1304 -0.4178 -0.8991
vn -0.1887 -0.4431 -0.8764
vn -0.0000 -0.7487 -0.6629
vn -0.0000 -0.7486 -0.6630
vn -0.0374 -0.3987 -0.9163
vn -0.0000 -0.3982 -0.9173
vn -0.1019 -0.4081 -0.9072
vn -0.0716 -0.4006 -0.9135
vn 0.1019 -0.4082 -0.9072
vn 0.0373 -0.3987 -0.9163
vn 0.0716 -0.4004 -0.9136
vn -0.0000 0.7760 0.6307
vn -0.0000 0.8016 0.5979
vn 0.0001 0.8020 0.5973
vn 0.0002 0.7768 0.6298
vn 0.2936 0.8621 -0.4130
vn 0.2547 0.8770 -0.4074
vn -0.0000 0.8309 0.5564
vn 0.3285 0.8454 -0.4212
vn 0.0001 0.7579 0.6524
vn -0.0000 0.7577 0.6527
vn 0.0782 0.9052 -0.4176
vn -0.0000 0.9069 -0.4213
vn 0.2083 0.8901 -0.4055
vn 0.1499 0.9007 -0.4077
vn -0.0001 0.7578 0.6525
vn -0.0002 0.7768 0.6298
vn -0.2082 0.8901 -0.4055
vn -0.2547 0.8771 -0.4073
vn -0.0782 0.9052 -0.4177
vn -0.1499 0.9008 -0.4076
vn -0.0001 0.8019 0.5974
vn -0.2936 0.8622 -0.4129
vn -0.3284 0.8454 -0.4213
vn 0.7064 -0.7078 0.0100
vn 0.7063 -0.7079 0.0054
vn -0.7063 -0.7079 0.0054
vn -0.7064 -0.7078 0.0100
vn -0.7065 -0.7076 0.0136
vn -0.7066 -0.7075 0.0162
vn 0.7065 -0.7076 0.0136
vn 0.7066 -0.7075 0.0162
vn 0.7061 -0.7078 0.0225
vn 0.7064 -0.7076 0.0189
vn -0.7064 -0.7076 0.0189
vn -0.7061 -0.7078 0.0225
vn -0.7058 -0.7079 0.0270
vn -0.7054 -0.7080 0.0325
vn 0.7058 -0.7079 0.0270
vn 0.7054 -0.7080 0.0325
vn 0.7057 -0.7074 0.0398
vn 0.7055 -0.7077 0.0372
vn -0.7055 -0.7077 0.0372
vn -0.7057 -0.7074 0.0398
vn -0.7061 -0.7069 0.0401
vn -0.7071 -0.7062 0.0367
vn 0.7061 -0.7069 0.0401
vn 0.7071 -0.7062 0.0367
vn 0.7063 0.7079 0.0054
vn 0.7064 0.7078 0.0100
vn 0.7065 0.7076 0.0136
vn 0.7066 0.7075 0.0162
vn -0.7065 0.7076 0.0136
vn -0.7064 0.7078 0.0100
vn -0.7066 0.7075 0.0162
vn -0.7063 0.7079 0.0054
vn 0.7064 0.7076 0.0189
vn 0.7061 0.7078 0.0225
vn 0.7058 0.7079 0.0270
vn 0.7054 0.7080 0.0325
vn -0.7058 0.7079 0.0270
vn -0.7061 0.7078 0.0225
vn -0.7054 0.7080 0.0325
vn -0.7064 0.7076 0.0189
vn 0.7055 0.7077 0.0372
vn 0.7057 0.7074 0.0398
vn 0.7061 0.7069 0.0401
vn 0.7071 0.7062 0.0367
vn -0.7061 0.7069 0.0401
vn -0.7057 0.7074 0.0398
vn -0.7071 0.7062 0.0367
vn -0.7055 0.7077 0.0372
vn -0.0000 -0.9965 -0.0832
vn -0.0000 -0.9986 -0.0538
vn -0.0000 -0.9995 -0.0330
vn 0.6890 -0.6947 -0.2065
vn 0.7004 -0.6993 -0.1425
vn 0.7069 -0.7017 -0.0890
vn -0.7005 -0.6993 -0.1425
vn -0.6890 -0.6947 -0.2065
vn -0.7069 -0.7017 -0.0890
vn -0.0000 -0.9927 -0.1209
vn -0.0000 -0.9860 -0.1665
vn -0.6711 -0.6870 -0.2787
vn -0.6461 -0.6750 -0.3562
vn 0.6711 -0.6870 -0.2787
vn 0.6461 -0.6750 -0.3562
vn -0.0000 0.9965 0.0832
vn -0.0000 0.9986 0.0538
vn 0.7112 0.6993 -0.0720
vn 0.7074 0.6997 -0.1001
vn -0.0000 0.9995 0.0330
vn 0.7126 0.7001 -0.0448
vn -0.0000 0.9927 0.1209
vn -0.0000 0.9860 0.1665
vn 0.7009 0.7016 -0.1283
vn 0.6915 0.7056 -0.1552
vn -0.7009 0.7016 -0.1283
vn -0.7074 0.6997 -0.1001
vn -0.6915 0.7055 -0.1552
vn -0.7112 0.6993 -0.0720
vn -0.7126 0.7001 -0.0448
vn -0.0000 -0.9680 -0.2510
vn -0.0000 -0.9773 -0.2119
vn 0.5886 -0.6454 -0.4869
vn 0.6168 -0.6603 -0.4283
vn -0.6168 -0.6603 -0.4284
vn -0.5886 -0.6453 -0.4869
vn -0.0000 -0.9577 -0.2877
vn -0.0000 -0.9454 -0.3260
vn -0.5602 -0.6297 -0.5383
vn -0.5289 -0.6118 -0.5881
vn 0.5602 -0.6297 -0.5382
vn 0.5289 -0.6119 -0.5881
vn -0.0000 0.9695 0.2449
vn -0.0000 0.9776 0.2104
vn 0.6777 0.7142 -0.1752
vn 0.6644 0.7216 -0.1944
vn -0.0000 0.9620 0.2730
vn -0.0000 0.9550 0.2968
vn 0.6500 0.7286 -0.2159
vn 0.6321 0.7357 -0.2435
vn -0.6500 0.7286 -0.2159
vn -0.6644 0.7217 -0.1944
vn -0.6320 0.7357 -0.2435
vn -0.6777 0.7142 -0.1752
vn -0.0000 -1.0000 -0.0065
vn -0.0000 -1.0000 -0.0013
vn 0.7106 -0.7036 0.0013
vn 0.7086 -0.7052 0.0257
vn -0.7086 -0.7052 0.0257
vn -0.7106 -0.7036 0.0013
vn -0.0000 -0.9998 -0.0176
vn -0.7110 -0.7021 -0.0401
vn 0.7110 -0.7021 -0.0401
vn -0.0000 1.0000 0.0065
vn -0.0000 1.0000 0.0013
vn 0.7091 0.7045 0.0276
vn 0.7122 0.7019 0.0104
vn -0.0000 0.9998 0.0176
vn 0.7146 0.6993 -0.0163
vn -0.7146 0.6993 -0.0163
vn -0.7122 0.7019 0.0104
vn -0.7091 0.7045 0.0276
vn -0.0000 -0.9104 -0.4138
vn -0.0000 -0.9296 -0.3684
vn 0.4462 -0.5653 -0.6938
vn 0.4915 -0.5901 -0.6405
vn -0.4915 -0.5901 -0.6405
vn -0.4462 -0.5653 -0.6938
vn -0.0000 -0.8887 -0.4585
vn -0.0000 -0.8676 -0.4973
vn -0.3961 -0.5394 -0.7431
vn -0.3468 -0.5155 -0.7836
vn 0.3961 -0.5394 -0.7431
vn 0.3468 -0.5155 -0.7836
vn -0.0000 0.9372 0.3487
vn -0.0000 0.9471 0.3209
vn 0.6075 0.7436 -0.2794
vn 0.5741 0.7546 -0.3177
vn -0.0000 0.9254 0.3791
vn -0.0000 0.9126 0.4088
vn 0.5336 0.7684 -0.3532
vn 0.4904 0.7839 -0.3809
vn -0.5336 0.7685 -0.3532
vn -0.5741 0.7546 -0.3177
vn -0.4904 0.7839 -0.3808
vn -0.6075 0.7436 -0.2794
vn -0.0000 -0.8271 -0.5620
vn -0.0000 -0.8475 -0.5309
vn 0.2602 -0.4761 -0.8400
vn 0.3019 -0.4953 -0.8146
vn -0.3019 -0.4952 -0.8146
vn -0.2602 -0.4761 -0.8400
vn -0.0000 -0.8074 -0.5899
vn -0.2224 -0.4586 -0.8603
vn 0.2224 -0.4587 -0.8603
vn -0.0000 0.8804 0.4742
vn -0.0000 0.8983 0.4394
vn -0.0000 0.8983 0.4395
vn -0.0000 0.8804 0.4741
vn 0.4471 0.7984 -0.4032
vn 0.4050 0.8136 -0.4172
vn -0.0000 0.8583 0.5131
vn 0.3651 0.8292 -0.4233
vn -0.3651 0.8292 -0.4232
vn -0.4050 0.8136 -0.4172
vn -0.4471 0.7984 -0.4032
vt 0.506223 0.995736
vt 0.506223 0.993582
vt 0.520801 0.993582
vt 0.517786 0.995705
vt 0.535379 0.993582
vt 0.529350 0.995643
vt 0.506223 0.991197
vt 0.523747 0.991197
vt 0.541271 0.991197
vt 0.514768 0.997569
vt 0.506223 0.997693
vt 0.511748 0.999305
vt 0.506223 0.999553
vt 0.523314 0.997321
vt 0.517403 0.998561
vt 0.497677 0.997569
vt 0.494659 0.995705
vt 0.489132 0.997321
vt 0.483096 0.995643
vt 0.500697 0.999305
vt 0.495043 0.998561
vt 0.491644 0.993582
vt 0.488698 0.991197
vt 0.477066 0.993582
vt 0.471174 0.991197
vt 0.709100 0.995780
vt 0.697537 0.995749
vt 0.694522 0.993680
vt 0.709100 0.993680
vt 0.691576 0.991385
vt 0.709100 0.991385
vt 0.685973 0.995688
vt 0.679943 0.993680
vt 0.674051 0.991385
vt 0.723678 0.993680
vt 0.720664 0.995749
vt 0.738257 0.993680
vt 0.732227 0.995688
vt 0.726624 0.991385
vt 0.744149 0.991385
vt 0.717645 0.997587
vt 0.709100 0.997710
vt 0.714626 0.999309
vt 0.709100 0.999555
vt 0.726191 0.997341
vt 0.720280 0.998571
vt 0.700555 0.997587
vt 0.692009 0.997341
vt 0.703574 0.999309
vt 0.697920 0.998571
vt 0.506222 0.561458
vt 0.506222 0.530696
vt 0.547952 0.530696
vt 0.548125 0.561458
vt 0.589682 0.530696
vt 0.590028 0.561458
vt 0.506222 0.499934
vt 0.547888 0.499934
vt 0.589553 0.499934
vt 0.548386 0.592221
vt 0.506222 0.592221
vt 0.548716 0.622983
vt 0.506222 0.622983
vt 0.590550 0.592221
vt 0.591209 0.622983
vt 0.464059 0.592221
vt 0.464320 0.561458
vt 0.421895 0.592221
vt 0.422417 0.561458
vt 0.463729 0.622983
vt 0.421236 0.622983
vt 0.464493 0.530696
vt 0.464557 0.499934
vt 0.422763 0.530696
vt 0.422891 0.499934
vt 0.506223 0.684507
vt 0.506223 0.653745
vt 0.549094 0.653745
vt 0.549540 0.684507
vt 0.591965 0.653745
vt 0.592857 0.684507
vt 0.550075 0.715270
vt 0.506223 0.715270
vt 0.550718 0.746032
vt 0.506223 0.746032
vt 0.593927 0.715270
vt 0.595214 0.746032
vt 0.462370 0.715270
vt 0.462905 0.684507
vt 0.418518 0.715270
vt 0.419588 0.684507
vt 0.461727 0.746032
vt 0.417231 0.746032
vt 0.463351 0.653745
vt 0.420480 0.653745
vt 0.506223 0.806114
vt 0.506223 0.776794
vt 0.551491 0.776794
vt 0.552303 0.806114
vt 0.596759 0.776794
vt 0.598382 0.806114
vt 0.553063 0.832551
vt 0.506223 0.832551
vt 0.553683 0.854661
vt 0.506223 0.854661
vt 0.599904 0.832551
vt 0.601144 0.854661
vt 0.459382 0.832551
vt 0.460143 0.806114
vt 0.412541 0.832551
vt 0.414063 0.806114
vt 0.458762 0.854661
vt 0.411301 0.854661
vt 0.460954 0.776794
vt 0.415686 0.776794
vt 0.709100 0.562997
vt 0.667197 0.562997
vt 0.667370 0.532235
vt 0.709100 0.532234
vt 0.667434 0.501472
vt 0.709100 0.501472
vt 0.625295 0.562997
vt 0.625640 0.532235
vt 0.625769 0.501472
vt 0.750830 0.532234
vt 0.751003 0.562997
vt 0.792560 0.532234
vt 0.792905 0.562997
vt 0.750765 0.501472
vt 0.792431 0.501472
vt 0.751264 0.593759
vt 0.709100 0.593759
vt 0.751593 0.624521
vt 0.709100 0.624521
vt 0.793428 0.593759
vt 0.794087 0.624521
vt 0.666936 0.593759
vt 0.624772 0.593759
vt 0.666607 0.624521
vt 0.624113 0.624522
vt 0.709100 0.686046
vt 0.665783 0.686046
vt 0.666229 0.655284
vt 0.709100 0.655284
vt 0.622465 0.686046
vt 0.623358 0.655284
vt 0.751971 0.655284
vt 0.752417 0.686046
vt 0.794842 0.655283
vt 0.795735 0.686046
vt 0.752952 0.716808
vt 0.709100 0.716808
vt 0.753596 0.747571
vt 0.709100 0.747571
vt 0.796805 0.716808
vt 0.798092 0.747570
vt 0.665248 0.716808
vt 0.621396 0.716809
vt 0.664604 0.747571
vt 0.620108 0.747571
vt 0.709100 0.807653
vt 0.663020 0.807653
vt 0.663832 0.778333
vt 0.709100 0.778333
vt 0.616940 0.807654
vt 0.618563 0.778333
vt 0.754369 0.778333
vt 0.755180 0.807653
vt 0.799637 0.778333
vt 0.801260 0.807653
vt 0.755941 0.834090
vt 0.709100 0.834090
vt 0.756561 0.856200
vt 0.709100 0.856200
vt 0.802782 0.834089
vt 0.804022 0.856200
vt 0.662259 0.834090
vt 0.615418 0.834090
vt 0.661639 0.856200
vt 0.614178 0.856200
vt 0.506223 0.915275
vt 0.506223 0.907555
vt 0.553463 0.907555
vt 0.552756 0.915275
vt 0.600702 0.907555
vt 0.599290 0.915275
vt 0.506223 0.899854
vt 0.553927 0.899854
vt 0.601630 0.899854
vt 0.551769 0.923031
vt 0.506223 0.923031
vt 0.550462 0.930837
vt 0.506223 0.930837
vt 0.597316 0.923031
vt 0.594701 0.930837
vt 0.460676 0.923031
vt 0.459689 0.915275
vt 0.415130 0.923031
vt 0.413155 0.915275
vt 0.461984 0.930837
vt 0.417744 0.930837
vt 0.458983 0.907555
vt 0.458519 0.899854
vt 0.411743 0.907555
vt 0.410815 0.899854
vt 0.709100 0.916815
vt 0.662566 0.916815
vt 0.661860 0.909094
vt 0.709100 0.909094
vt 0.661396 0.901393
vt 0.709100 0.901393
vt 0.616032 0.916815
vt 0.614620 0.909094
vt 0.613692 0.901393
vt 0.756340 0.909094
vt 0.755634 0.916815
vt 0.803580 0.909094
vt 0.802168 0.916814
vt 0.756804 0.901393
vt 0.804508 0.901393
vt 0.754647 0.924570
vt 0.709100 0.924570
vt 0.753340 0.932376
vt 0.709100 0.932376
vt 0.800194 0.924570
vt 0.797579 0.932376
vt 0.663554 0.924570
vt 0.618007 0.924570
vt 0.664861 0.932376
vt 0.620621 0.932376
vt 0.506223 0.946398
vt 0.506223 0.938708
vt 0.548795 0.938708
vt 0.546872 0.946398
vt 0.591368 0.938708
vt 0.587522 0.946398
vt 0.544794 0.953658
vt 0.506223 0.953658
vt 0.542664 0.960242
vt 0.506223 0.960242
vt 0.583366 0.953658
vt 0.579106 0.960242
vt 0.467651 0.953658
vt 0.465573 0.946398
vt 0.429079 0.953658
vt 0.424924 0.946398
vt 0.469781 0.960242
vt 0.433339 0.960242
vt 0.463650 0.938708
vt 0.421077 0.938708
vt 0.709100 0.947928
vt 0.668450 0.947928
vt 0.666527 0.940248
vt 0.709100 0.940248
vt 0.627801 0.947928
vt 0.623954 0.940248
vt 0.751673 0.940248
vt 0.749750 0.947928
vt 0.794246 0.940247
vt 0.790400 0.947928
vt 0.747672 0.955160
vt 0.709100 0.955160
vt 0.745542 0.961686
vt 0.709100 0.961686
vt 0.786244 0.955160
vt 0.781984 0.961686
vt 0.670528 0.955160
vt 0.631956 0.955160
vt 0.672658 0.961686
vt 0.636216 0.961687
vt 0.506223 0.883021
vt 0.506223 0.871004
vt 0.554073 0.871004
vt 0.554239 0.883021
vt 0.601923 0.871004
vt 0.602255 0.883021
vt 0.554188 0.892157
vt 0.506223 0.892157
vt 0.602152 0.892157
vt 0.458258 0.892157
vt 0.458207 0.883021
vt 0.410293 0.892157
vt 0.410191 0.883021
vt 0.458373 0.871004
vt 0.410522 0.871004
vt 0.709100 0.884560
vt 0.661084 0.884560
vt 0.661250 0.872543
vt 0.709100 0.872543
vt 0.613068 0.884560
vt 0.613399 0.872543
vt 0.756950 0.872543
vt 0.757116 0.884560
vt 0.804801 0.872543
vt 0.805132 0.884560
vt 0.757065 0.893696
vt 0.709100 0.893696
vt 0.805030 0.893696
vt 0.661135 0.893696
vt 0.613170 0.893696
vt 0.506223 0.970793
vt 0.506223 0.965902
vt 0.540585 0.965902
vt 0.538505 0.970793
vt 0.574947 0.965902
vt 0.570787 0.970793
vt 0.536374 0.975070
vt 0.506223 0.975070
vt 0.534143 0.978886
vt 0.506223 0.978886
vt 0.566526 0.975070
vt 0.562063 0.978886
vt 0.476071 0.975070
vt 0.473941 0.970793
vt 0.445919 0.975070
vt 0.441659 0.970793
vt 0.478302 0.978886
vt 0.450382 0.978886
vt 0.471861 0.965902
vt 0.437499 0.965902
vt 0.709100 0.972013
vt 0.676818 0.972013
vt 0.674738 0.967251
vt 0.709100 0.967251
vt 0.644536 0.972013
vt 0.640376 0.967251
vt 0.743462 0.967251
vt 0.741382 0.972013
vt 0.777825 0.967250
vt 0.773665 0.972013
vt 0.739252 0.976134
vt 0.709100 0.976134
vt 0.737021 0.979774
vt 0.709100 0.979774
vt 0.769404 0.976134
vt 0.764941 0.979774
vt 0.678948 0.976134
vt 0.648796 0.976134
vt 0.681180 0.979774
vt 0.653259 0.979774
vt 0.506223 0.985614
vt 0.506223 0.982398
vt 0.531761 0.982398
vt 0.529231 0.985614
vt 0.557298 0.982398
vt 0.552239 0.985614
vt 0.526558 0.988544
vt 0.506223 0.988544
vt 0.546894 0.988544
vt 0.485887 0.988544
vt 0.483214 0.985614
vt 0.465551 0.988544
vt 0.460206 0.985614
vt 0.480685 0.982398
vt 0.455147 0.982398
vt 0.709100 0.986118
vt 0.686092 0.986118
vt 0.683562 0.983093
vt 0.709100 0.983093
vt 0.663083 0.986118
vt 0.658024 0.983093
vt 0.734638 0.983093
vt 0.732108 0.986118
vt 0.760176 0.983093
vt 0.755117 0.986118
vt 0.729436 0.988873
vt 0.709100 0.988873
vt 0.749772 0.988873
vt 0.688764 0.988873
vt 0.668428 0.988873
vt 0.506222 0.004132
vt 0.517786 0.004163
vt 0.520801 0.006286
vt 0.506222 0.006286
vt 0.523747 0.008671
vt 0.506222 0.008671
vt 0.529349 0.004225
vt 0.535379 0.006286
vt 0.541271 0.008671
vt 0.491644 0.006286
vt 0.494659 0.004163
vt 0.477066 0.006286
vt 0.483096 0.004225
vt 0.488698 0.008671
vt 0.471174 0.008671
vt 0.497677 0.002299
vt 0.506222 0.002175
vt 0.500697 0.000563
vt 0.506222 0.000315
vt 0.489132 0.002547
vt 0.495043 0.001307
vt 0.514768 0.002299
vt 0.523313 0.002547
vt 0.511748 0.000563
vt 0.517402 0.001307
vt 0.709099 0.007168
vt 0.709099 0.009269
vt 0.694521 0.009269
vt 0.697535 0.007199
vt 0.679942 0.009269
vt 0.685972 0.007261
vt 0.709099 0.011563
vt 0.691575 0.011563
vt 0.674050 0.011563
vt 0.700553 0.005361
vt 0.709099 0.005238
vt 0.703573 0.003640
vt 0.709099 0.003394
vt 0.692008 0.005607
vt 0.697919 0.004377
vt 0.717644 0.005361
vt 0.720662 0.007199
vt 0.726189 0.005607
vt 0.732226 0.007261
vt 0.714624 0.003640
vt 0.720279 0.004378
vt 0.723677 0.009269
vt 0.726623 0.011563
vt 0.738255 0.009269
vt 0.744147 0.011563
vt 0.506222 0.438410
vt 0.548125 0.438409
vt 0.547952 0.469172
vt 0.506222 0.469172
vt 0.590028 0.438409
vt 0.589682 0.469172
vt 0.464493 0.469172
vt 0.464320 0.438410
vt 0.422763 0.469172
vt 0.422417 0.438410
vt 0.464059 0.407647
vt 0.506222 0.407647
vt 0.463729 0.376885
vt 0.506222 0.376885
vt 0.421895 0.407647
vt 0.421236 0.376885
vt 0.548386 0.407647
vt 0.590550 0.407647
vt 0.548716 0.376885
vt 0.591209 0.376885
vt 0.506222 0.315361
vt 0.549540 0.315361
vt 0.549093 0.346123
vt 0.506222 0.346123
vt 0.592857 0.315361
vt 0.591965 0.346123
vt 0.463351 0.346123
vt 0.462905 0.315361
vt 0.420480 0.346123
vt 0.419588 0.315361
vt 0.462370 0.284598
vt 0.506222 0.284598
vt 0.461727 0.253836
vt 0.506222 0.253836
vt 0.418518 0.284598
vt 0.417231 0.253836
vt 0.550074 0.284598
vt 0.593927 0.284598
vt 0.550718 0.253836
vt 0.595214 0.253836
vt 0.506222 0.193754
vt 0.552302 0.193754
vt 0.551491 0.223074
vt 0.506222 0.223074
vt 0.598382 0.193754
vt 0.596759 0.223074
vt 0.460954 0.223074
vt 0.460142 0.193754
vt 0.415686 0.223074
vt 0.414062 0.193754
vt 0.459382 0.167317
vt 0.506222 0.167317
vt 0.458762 0.145207
vt 0.506222 0.145207
vt 0.412541 0.167317
vt 0.411301 0.145207
vt 0.553063 0.167317
vt 0.599904 0.167317
vt 0.553683 0.145207
vt 0.601144 0.145207
vt 0.709100 0.439948
vt 0.709100 0.470710
vt 0.667370 0.470710
vt 0.667197 0.439948
vt 0.625640 0.470710
vt 0.625295 0.439948
vt 0.666936 0.409186
vt 0.709100 0.409186
vt 0.666607 0.378423
vt 0.709100 0.378423
vt 0.624772 0.409186
vt 0.624113 0.378423
vt 0.751263 0.409186
vt 0.751002 0.439948
vt 0.793427 0.409186
vt 0.792905 0.439948
vt 0.751593 0.378423
vt 0.794086 0.378423
vt 0.750830 0.470710
vt 0.792559 0.470710
vt 0.709100 0.316899
vt 0.709100 0.347661
vt 0.666229 0.347661
vt 0.665783 0.316899
vt 0.623358 0.347661
vt 0.622465 0.316899
vt 0.665248 0.286137
vt 0.709100 0.286137
vt 0.664604 0.255375
vt 0.709100 0.255375
vt 0.621396 0.286137
vt 0.620108 0.255375
vt 0.752952 0.286137
vt 0.752417 0.316899
vt 0.796804 0.286137
vt 0.795734 0.316899
vt 0.753595 0.255375
vt 0.798091 0.255375
vt 0.751971 0.347661
vt 0.794842 0.347661
vt 0.709100 0.195293
vt 0.709100 0.224613
vt 0.663831 0.224613
vt 0.663020 0.195293
vt 0.618563 0.224613
vt 0.616940 0.195292
vt 0.662259 0.168856
vt 0.709100 0.168856
vt 0.661639 0.146746
vt 0.709099 0.146746
vt 0.615418 0.168856
vt 0.614178 0.146746
vt 0.755940 0.168856
vt 0.755179 0.195293
vt 0.802781 0.168856
vt 0.801259 0.195293
vt 0.756560 0.146746
vt 0.804021 0.146746
vt 0.754368 0.224613
vt 0.799636 0.224613
vt 0.506222 0.084593
vt 0.552756 0.084593
vt 0.553462 0.092313
vt 0.506222 0.092313
vt 0.553926 0.100014
vt 0.506222 0.100014
vt 0.599290 0.084593
vt 0.600702 0.092314
vt 0.601630 0.100015
vt 0.458983 0.092313
vt 0.459689 0.084593
vt 0.411743 0.092313
vt 0.413155 0.084593
vt 0.458519 0.100014
vt 0.410815 0.100014
vt 0.460676 0.076837
vt 0.506222 0.076837
vt 0.461983 0.069031
vt 0.506222 0.069032
vt 0.415129 0.076837
vt 0.417744 0.069031
vt 0.551769 0.076837
vt 0.597315 0.076838
vt 0.550462 0.069032
vt 0.594701 0.069032
vt 0.709099 0.086132
vt 0.709099 0.093853
vt 0.661860 0.093853
vt 0.662566 0.086132
vt 0.614620 0.093853
vt 0.616032 0.086132
vt 0.709099 0.101554
vt 0.661396 0.101554
vt 0.613692 0.101554
vt 0.663553 0.078377
vt 0.709099 0.078377
vt 0.664860 0.070571
vt 0.709099 0.070571
vt 0.618007 0.078377
vt 0.620621 0.070571
vt 0.754646 0.078377
vt 0.755633 0.086132
vt 0.800192 0.078377
vt 0.802166 0.086132
vt 0.753338 0.070571
vt 0.797577 0.070571
vt 0.756339 0.093853
vt 0.756803 0.101554
vt 0.803578 0.093853
vt 0.804507 0.101554
vt 0.506222 0.053470
vt 0.546872 0.053470
vt 0.548795 0.061160
vt 0.506222 0.061160
vt 0.587521 0.053470
vt 0.591368 0.061160
vt 0.463650 0.061160
vt 0.465573 0.053470
vt 0.421077 0.061160
vt 0.424923 0.053470
vt 0.467651 0.046210
vt 0.506222 0.046210
vt 0.469781 0.039626
vt 0.506222 0.039626
vt 0.429079 0.046209
vt 0.433339 0.039625
vt 0.544794 0.046210
vt 0.583366 0.046210
vt 0.542664 0.039626
vt 0.579106 0.039626
vt 0.709099 0.055019
vt 0.709099 0.062700
vt 0.666527 0.062700
vt 0.668450 0.055020
vt 0.623954 0.062700
vt 0.627801 0.055020
vt 0.670528 0.047788
vt 0.709099 0.047788
vt 0.672658 0.041261
vt 0.709099 0.041261
vt 0.631956 0.047788
vt 0.636216 0.041261
vt 0.747671 0.047788
vt 0.749748 0.055019
vt 0.786242 0.047788
vt 0.790398 0.055019
vt 0.745541 0.041261
vt 0.781982 0.041261
vt 0.751672 0.062700
vt 0.794244 0.062700
vt 0.506222 0.116847
vt 0.554238 0.116847
vt 0.554072 0.128865
vt 0.506222 0.128864
vt 0.602254 0.116847
vt 0.601923 0.128865
vt 0.458372 0.128864
vt 0.458206 0.116847
vt 0.410522 0.128864
vt 0.410191 0.116847
vt 0.458257 0.107711
vt 0.506222 0.107711
vt 0.410293 0.107711
vt 0.554187 0.107711
vt 0.602152 0.107711
vt 0.709099 0.118386
vt 0.709099 0.130404
vt 0.661249 0.130404
vt 0.661084 0.118386
vt 0.613400 0.130404
vt 0.613068 0.118386
vt 0.661135 0.109251
vt 0.709099 0.109251
vt 0.613170 0.109251
vt 0.757064 0.109251
vt 0.757115 0.118386
vt 0.805029 0.109251
vt 0.805131 0.118386
vt 0.756949 0.130404
vt 0.804799 0.130404
vt 0.506222 0.029075
vt 0.538505 0.029075
vt 0.540584 0.033966
vt 0.506222 0.033966
vt 0.570787 0.029075
vt 0.574947 0.033966
vt 0.471860 0.033966
vt 0.473940 0.029075
vt 0.437498 0.033965
vt 0.441658 0.029075
vt 0.476071 0.024798
vt 0.506222 0.024798
vt 0.478302 0.020982
vt 0.506222 0.020982
vt 0.445919 0.024798
vt 0.450382 0.020982
vt 0.536374 0.024799
vt 0.566526 0.024799
vt 0.534143 0.020982
vt 0.562063 0.020982
vt 0.709099 0.030935
vt 0.709099 0.035697
vt 0.674737 0.035697
vt 0.676817 0.030935
vt 0.640376 0.035697
vt 0.644535 0.030935
vt 0.678948 0.026814
vt 0.709099 0.026814
vt 0.681179 0.023174
vt 0.709099 0.023174
vt 0.648796 0.026814
vt 0.653259 0.023174
vt 0.739251 0.026814
vt 0.741381 0.030935
vt 0.769402 0.026814
vt 0.773663 0.030935
vt 0.737019 0.023174
vt 0.764939 0.023174
vt 0.743461 0.035697
vt 0.777823 0.035697
vt 0.506222 0.014254
vt 0.529231 0.014254
vt 0.531760 0.017470
vt 0.506222 0.017470
vt 0.552239 0.014254
vt 0.557298 0.017470
vt 0.480685 0.017470
vt 0.483214 0.014254
vt 0.455147 0.017470
vt 0.460206 0.014254
vt 0.485887 0.011324
vt 0.506222 0.011324
vt 0.465551 0.011324
vt 0.526558 0.011324
vt 0.546894 0.011324
vt 0.709099 0.016830
vt 0.709099 0.019855
vt 0.683561 0.019855
vt 0.686091 0.016830
vt 0.658024 0.019855
vt 0.663083 0.016830
vt 0.688763 0.014075
vt 0.709099 0.014075
vt 0.668428 0.014075
vt 0.729434 0.014075
vt 0.732107 0.016830
vt 0.749770 0.014075
vt 0.755115 0.016830
vt 0.734637 0.019855
vt 0.760174 0.019855
vt 0.294289 0.009097
vt 0.295116 0.006254
vt 0.301231 0.007579
vt 0.300098 0.010301
vt 0.307419 0.009282
vt 0.306041 0.011927
vt 0.313604 0.011277
vt 0.311994 0.013898
vt 0.319696 0.013494
vt 0.317826 0.016153
vt 0.325588 0.015886
vt 0.323382 0.018631
vt 0.331279 0.018521
vt 0.328646 0.021355
vt 0.336749 0.021466
vt 0.333610 0.024348
vt 0.341962 0.024778
vt 0.338264 0.027633
vt 0.346870 0.028497
vt 0.342602 0.031231
vt 0.351549 0.032757
vt 0.346742 0.035307
vt 0.356080 0.037688
vt 0.350812 0.040032
vt 0.360551 0.043421
vt 0.354944 0.045541
vt 0.365023 0.050116
vt 0.359199 0.052007
vt 0.369290 0.057498
vt 0.363344 0.059167
vt 0.373176 0.065306
vt 0.367161 0.066760
vt 0.376504 0.073294
vt 0.370446 0.074528
vt 0.379109 0.081211
vt 0.373011 0.082226
vt 0.381074 0.089087
vt 0.374945 0.089881
vt 0.382477 0.096936
vt 0.376327 0.097510
vt 0.383397 0.104766
vt 0.377239 0.105124
vt 0.383912 0.112574
vt 0.377764 0.112725
vt 0.384072 0.121791
vt 0.377936 0.121753
vt 0.383840 0.133828
vt 0.377726 0.133641
vt 0.383170 0.150093
vt 0.377077 0.149813
vt 0.382043 0.172014
vt 0.375962 0.171693
vt 0.380616 0.198175
vt 0.374541 0.197849
vt 0.379077 0.227164
vt 0.373003 0.226857
vt 0.377606 0.257570
vt 0.371531 0.257298
vt 0.376347 0.287966
vt 0.370270 0.287735
vt 0.375292 0.318364
vt 0.369213 0.318171
vt 0.374409 0.348769
vt 0.368329 0.348606
vt 0.373668 0.379176
vt 0.367587 0.379040
vt 0.373046 0.409588
vt 0.366964 0.409478
vt 0.372566 0.440000
vt 0.366483 0.439922
vt 0.372261 0.470412
vt 0.366176 0.470372
vt 0.372160 0.500836
vt 0.366069 0.500837
vt 0.372271 0.531258
vt 0.366187 0.531300
vt 0.372587 0.561667
vt 0.366505 0.561747
vt 0.373077 0.592073
vt 0.366997 0.592185
vt 0.373710 0.622479
vt 0.367630 0.622618
vt 0.374463 0.652881
vt 0.368384 0.653045
vt 0.375356 0.683279
vt 0.369279 0.683474
vt 0.376422 0.713671
vt 0.370347 0.713904
vt 0.377692 0.744059
vt 0.371619 0.744334
vt 0.379174 0.774455
vt 0.373103 0.774765
vt 0.380724 0.803435
vt 0.374651 0.803763
vt 0.382160 0.829584
vt 0.376082 0.829908
vt 0.383293 0.851494
vt 0.377205 0.851774
vt 0.383962 0.867740
vt 0.377863 0.867927
vt 0.384187 0.879735
vt 0.378083 0.879777
vt 0.384028 0.888892
vt 0.377919 0.888743
vt 0.383518 0.896646
vt 0.377402 0.896292
vt 0.382608 0.904423
vt 0.376498 0.903855
vt 0.381217 0.912222
vt 0.375126 0.911434
vt 0.379266 0.920051
vt 0.373205 0.919040
vt 0.376674 0.927924
vt 0.370651 0.926691
vt 0.373351 0.935866
vt 0.367374 0.934408
vt 0.369461 0.943622
vt 0.363560 0.941938
vt 0.365176 0.950936
vt 0.359409 0.949018
vt 0.360676 0.957548
vt 0.355135 0.955385
vt 0.356167 0.963191
vt 0.350974 0.960789
vt 0.351586 0.968021
vt 0.346845 0.965404
vt 0.346866 0.972186
vt 0.342652 0.969401
vt 0.341935 0.975824
vt 0.338282 0.972941
vt 0.336711 0.979071
vt 0.333614 0.976170
vt 0.331236 0.981950
vt 0.328645 0.979102
vt 0.325539 0.984510
vt 0.323379 0.981749
vt 0.319634 0.986809
vt 0.317820 0.984129
vt 0.313516 0.988896
vt 0.311971 0.986246
vt 0.307292 0.990736
vt 0.305986 0.988060
vt 0.301064 0.992267
vt 0.300006 0.989521
vt 0.294941 0.993424
vt 0.294173 0.990587
vt 0.272239 0.990722
vt 0.271517 0.993541
vt 0.265443 0.992487
vt 0.266450 0.989750
vt 0.259238 0.991074
vt 0.260491 0.988391
vt 0.253002 0.989359
vt 0.254496 0.986684
vt 0.246838 0.987393
vt 0.248605 0.984669
vt 0.240859 0.985211
vt 0.242970 0.982388
vt 0.235070 0.982767
vt 0.237610 0.979840
vt 0.229493 0.980005
vt 0.232536 0.977010
vt 0.224161 0.976874
vt 0.227757 0.973884
vt 0.219123 0.973339
vt 0.223281 0.970449
vt 0.214304 0.969259
vt 0.219000 0.966550
vt 0.209630 0.964489
vt 0.214802 0.962007
vt 0.205018 0.958878
vt 0.210575 0.956636
vt 0.200385 0.952253
vt 0.206201 0.950251
vt 0.195957 0.944875
vt 0.201936 0.943117
vt 0.191940 0.937003
vt 0.198020 0.935503
vt 0.188556 0.928887
vt 0.194694 0.927674
vt 0.186008 0.920808
vt 0.192193 0.919888
vt 0.184201 0.912770
vt 0.190415 0.912136
vt 0.183034 0.904776
vt 0.189259 0.904412
vt 0.182411 0.896828
vt 0.188625 0.896717
vt 0.182237 0.888939
vt 0.188415 0.889053
vt 0.182469 0.879675
vt 0.188656 0.879874
vt 0.182912 0.867683
vt 0.189013 0.867938
vt 0.183665 0.851477
vt 0.189754 0.851777
vt 0.184829 0.829581
vt 0.190909 0.829911
vt 0.186280 0.803434
vt 0.192353 0.803765
vt 0.187840 0.774468
vt 0.193906 0.774779
vt 0.189324 0.744089
vt 0.195396 0.744364
vt 0.190595 0.713700
vt 0.196671 0.713933
vt 0.191663 0.683301
vt 0.197742 0.683497
vt 0.192558 0.652895
vt 0.198639 0.653060
vt 0.193314 0.622488
vt 0.199394 0.622627
vt 0.193950 0.592085
vt 0.200029 0.592198
vt 0.194443 0.561687
vt 0.200523 0.561767
vt 0.194760 0.531289
vt 0.200840 0.531331
vt 0.194865 0.500889
vt 0.200947 0.500886
vt 0.194732 0.470483
vt 0.200817 0.470435
vt 0.194392 0.440065
vt 0.200480 0.439980
vt 0.193885 0.409644
vt 0.199967 0.409529
vt 0.193238 0.379232
vt 0.199319 0.379091
vt 0.192473 0.348820
vt 0.198554 0.348653
vt 0.191568 0.318414
vt 0.197645 0.318216
vt 0.190489 0.288027
vt 0.196559 0.287789
vt 0.189195 0.257642
vt 0.195269 0.257362
vt 0.187687 0.227245
vt 0.193762 0.226929
vt 0.186116 0.198256
vt 0.192194 0.197923
vt 0.184664 0.172094
vt 0.190748 0.171768
vt 0.183524 0.150179
vt 0.189616 0.149898
vt 0.182854 0.133946
vt 0.188943 0.133757
vt 0.182607 0.121948
vt 0.188727 0.121904
vt 0.182751 0.112747
vt 0.188893 0.112892
vt 0.183254 0.104941
vt 0.189410 0.105291
vt 0.184162 0.097112
vt 0.190312 0.097678
vt 0.185554 0.089261
vt 0.191684 0.090047
vt 0.187507 0.081381
vt 0.193607 0.082388
vt 0.190101 0.073458
vt 0.196162 0.074684
vt 0.193419 0.065464
vt 0.199436 0.066910
vt 0.197295 0.057652
vt 0.203241 0.059314
vt 0.201553 0.050269
vt 0.207375 0.052154
vt 0.206017 0.043573
vt 0.211622 0.045693
vt 0.210489 0.037839
vt 0.215750 0.040190
vt 0.215036 0.032915
vt 0.219842 0.035482
vt 0.219730 0.028662
vt 0.224002 0.031407
vt 0.224643 0.024943
vt 0.228347 0.027797
vt 0.229854 0.021622
vt 0.233000 0.024499
vt 0.235319 0.018664
vt 0.237959 0.021493
vt 0.241006 0.016016
vt 0.243216 0.018757
vt 0.246894 0.013616
vt 0.248764 0.016271
vt 0.252977 0.011405
vt 0.254584 0.014018
vt 0.259135 0.009419
vt 0.260512 0.012056
vt 0.265310 0.007700
vt 0.266454 0.010402
vt 0.271360 0.006361
vt 0.272202 0.009160
vt 0.277221 0.005488
vt 0.277684 0.008418
vt 0.283156 0.005090
vt 0.283172 0.008164
vt 0.289135 0.005414
vt 0.288682 0.008385
vt 0.277755 0.991286
vt 0.277367 0.994197
vt 0.283171 0.991438
vt 0.283188 0.994451
vt 0.288618 0.991228
vt 0.289039 0.994155
s 1
usemtl Material.002
f 1/1/1 5/2/2 6/3/3 2/4/4
f 2/4/4 6/3/3 325/5/5 326/6/6
f 5/2/2 464/7/7 463/8/7 6/3/3
f 6/3/3 463/8/7 679/9/8 325/5/5
f 1/1/1 2/4/4 7/10/9 3/11/10
f 3/11/10 7/10/9 328/12/11 329/13/12
f 2/4/4 326/6/6 327/14/13 7/10/9
f 7/10/9 327/14/13 655/15/14 328/12/11
f 1/1/1 3/11/10 8/16/9 4/17/15
f 4/17/15 8/16/9 348/18/16 347/19/17
f 3/11/10 329/13/12 330/20/18 8/16/9
f 8/16/9 330/20/18 656/21/19 348/18/16
f 1/1/1 4/17/15 9/22/20 5/2/2
f 5/2/2 9/22/20 465/23/7 464/7/7
f 4/17/15 347/19/17 346/24/21 9/22/20
f 9/22/20 346/24/21 681/25/22 465/23/7
f 10/26/23 14/27/24 15/28/25 11/29/26
f 11/29/26 15/28/25 468/30/27 467/31/27
f 14/27/24 332/32/28 331/33/29 15/28/25
f 15/28/25 331/33/29 680/34/30 468/30/27
f 10/26/23 11/29/26 16/35/31 12/36/32
f 12/36/32 16/35/31 367/37/33 368/38/34
f 11/29/26 467/31/27 466/39/27 16/35/31
f 16/35/31 466/39/27 682/40/35 367/37/33
f 10/26/23 12/36/32 17/41/36 13/42/37
f 13/42/37 17/41/36 336/43/38 335/44/39
f 12/36/32 368/38/34 369/45/40 17/41/36
f 17/41/36 369/45/40 716/46/41 336/43/38
f 10/26/23 13/42/37 18/47/42 14/27/24
f 14/27/24 18/47/42 333/48/43 332/32/28
f 13/42/37 335/44/39 334/49/44 18/47/42
f 18/47/42 334/49/44 715/50/45 333/48/43
f 19/51/46 23/52/46 24/53/46 20/54/46
f 20/54/46 24/53/46 339/55/47 338/56/48
f 23/52/46 380/57/46 379/58/46 24/53/46
f 24/53/46 379/58/46 685/59/49 339/55/47
f 19/51/46 20/54/46 25/60/46 21/61/46
f 21/61/46 25/60/46 382/62/46 383/63/46
f 20/54/46 338/56/48 337/64/50 25/60/46
f 25/60/46 337/64/50 657/65/51 382/62/46
f 19/51/46 21/61/46 26/66/46 22/67/46
f 22/67/46 26/66/46 357/68/52 356/69/53
f 21/61/46 383/63/46 384/70/46 26/66/46
f 26/66/46 384/70/46 662/71/54 357/68/52
f 19/51/46 22/67/46 27/72/46 23/52/46
f 23/52/46 27/72/46 381/73/46 380/57/46
f 22/67/46 356/69/53 355/74/55 27/72/46
f 27/72/46 355/74/55 692/75/56 381/73/46
f 28/76/46 32/77/46 33/78/46 29/79/46
f 29/79/46 33/78/46 342/80/57 341/81/58
f 32/77/46 383/63/46 382/62/46 33/78/46
f 33/78/46 382/62/46 657/65/51 342/80/57
f 28/76/46 29/79/46 34/82/46 30/83/46
f 30/83/46 34/82/46 385/84/46 386/85/46
f 29/79/46 341/81/58 340/86/59 34/82/46
f 34/82/46 340/86/59 658/87/60 385/84/46
f 28/76/46 30/83/46 35/88/46 31/89/46
f 31/89/46 35/88/46 354/90/61 353/91/62
f 30/83/46 386/85/46 387/92/46 35/88/46
f 35/88/46 387/92/46 661/93/63 354/90/61
f 28/76/46 31/89/46 36/94/46 32/77/46
f 32/77/46 36/94/46 384/70/46 383/63/46
f 31/89/46 353/91/62 352/95/64 36/94/46
f 36/94/46 352/95/64 662/71/54 384/70/46
f 37/96/46 41/97/46 42/98/46 38/99/46
f 38/99/46 42/98/46 345/100/65 344/101/66
f 41/97/46 386/85/46 385/84/46 42/98/46
f 42/98/46 385/84/46 658/87/60 345/100/65
f 37/96/46 38/99/46 43/102/46 39/103/46
f 39/103/46 43/102/46 388/104/46 389/105/46
f 38/99/46 344/101/66 343/106/67 43/102/46
f 43/102/46 343/106/67 659/107/68 388/104/46
f 37/96/46 39/103/46 44/108/46 40/109/46
f 40/109/46 44/108/46 351/110/69 350/111/70
f 39/103/46 389/105/46 390/112/46 44/108/46
f 44/108/46 390/112/46 660/113/71 351/110/69
f 37/96/46 40/109/46 45/114/46 41/97/46
f 41/97/46 45/114/46 387/92/46 386/85/46
f 40/109/46 350/111/70 349/115/72 45/114/46
f 45/114/46 349/115/72 661/93/63 387/92/46
f 46/116/73 50/117/73 51/118/73 47/119/73
f 47/119/73 51/118/73 393/120/73 392/121/73
f 50/117/73 359/122/74 360/123/75 51/118/73
f 51/118/73 360/123/75 693/124/76 393/120/73
f 46/116/73 47/119/73 52/125/73 48/126/73
f 48/126/73 52/125/73 376/127/77 377/128/78
f 47/119/73 392/121/73 391/129/73 52/125/73
f 52/125/73 391/129/73 700/130/79 376/127/77
f 46/116/73 48/126/73 53/131/73 49/132/73
f 49/132/73 53/131/73 394/133/73 395/134/73
f 48/126/73 377/128/78 378/135/80 53/131/73
f 53/131/73 378/135/80 668/136/81 394/133/73
f 46/116/73 49/132/73 54/137/73 50/117/73
f 50/117/73 54/137/73 358/138/82 359/122/74
f 49/132/73 395/134/73 396/139/73 54/137/73
f 54/137/73 396/139/73 663/140/83 358/138/82
f 55/141/73 59/142/73 60/143/73 56/144/73
f 56/144/73 60/143/73 396/139/73 395/134/73
f 59/142/73 362/145/84 363/146/85 60/143/73
f 60/143/73 363/146/85 663/140/83 396/139/73
f 55/141/73 56/144/73 61/147/73 57/148/73
f 57/148/73 61/147/73 373/149/86 374/150/87
f 56/144/73 395/134/73 394/133/73 61/147/73
f 61/147/73 394/133/73 668/136/81 373/149/86
f 55/141/73 57/148/73 62/151/73 58/152/73
f 58/152/73 62/151/73 397/153/73 398/154/73
f 57/148/73 374/150/87 375/155/88 62/151/73
f 62/151/73 375/155/88 667/156/89 397/153/73
f 55/141/73 58/152/73 63/157/73 59/142/73
f 59/142/73 63/157/73 361/158/90 362/145/84
f 58/152/73 398/154/73 399/159/73 63/157/73
f 63/157/73 399/159/73 664/160/91 361/158/90
f 64/161/73 68/162/73 69/163/73 65/164/73
f 65/164/73 69/163/73 399/159/73 398/154/73
f 68/162/73 365/165/92 366/166/93 69/163/73
f 69/163/73 366/166/93 664/160/91 399/159/73
f 64/161/73 65/164/73 70/167/73 66/168/73
f 66/168/73 70/167/73 370/169/94 371/170/95
f 65/164/73 398/154/73 397/153/73 70/167/73
f 70/167/73 397/153/73 667/156/89 370/169/94
f 64/161/73 66/168/73 71/171/73 67/172/73
f 67/172/73 71/171/73 400/173/73 401/174/73
f 66/168/73 371/170/95 372/175/96 71/171/73
f 71/171/73 372/175/96 666/176/97 400/173/73
f 64/161/73 67/172/73 72/177/73 68/162/73
f 68/162/73 72/177/73 364/178/98 365/165/92
f 67/172/73 401/174/73 402/179/73 72/177/73
f 72/177/73 402/179/73 665/180/99 364/178/98
f 73/181/100 77/182/101 78/183/101 74/184/100
f 74/184/100 78/183/101 427/185/102 428/186/103
f 77/182/101 440/187/104 439/188/104 78/183/101
f 78/183/101 439/188/104 675/189/105 427/185/102
f 73/181/100 74/184/100 79/190/106 75/191/106
f 75/191/106 79/190/106 409/192/107 410/193/107
f 74/184/100 428/186/103 429/194/108 79/190/106
f 79/190/106 429/194/108 669/195/109 409/192/107
f 73/181/100 75/191/106 80/196/106 76/197/100
f 76/197/100 80/196/106 435/198/110 434/199/111
f 75/191/106 410/193/107 411/200/107 80/196/106
f 80/196/106 411/200/107 671/201/112 435/198/110
f 73/181/100 76/197/100 81/202/101 77/182/101
f 77/182/101 81/202/101 441/203/104 440/187/104
f 76/197/100 434/199/111 433/204/113 81/202/101
f 81/202/101 433/204/113 717/205/114 441/203/104
f 82/206/115 86/207/115 87/208/116 83/209/116
f 83/209/116 87/208/116 444/210/117 443/211/117
f 86/207/115 431/212/118 430/213/119 87/208/116
f 87/208/116 430/213/119 676/214/120 444/210/117
f 82/206/115 83/209/116 88/215/116 84/216/115
f 84/216/115 88/215/116 436/217/121 437/218/122
f 83/209/116 443/211/117 442/219/117 88/215/116
f 88/215/116 442/219/117 718/220/123 436/217/121
f 82/206/115 84/216/115 89/221/124 85/222/124
f 85/222/124 89/221/124 412/223/125 413/224/125
f 84/216/115 437/218/122 438/225/126 89/221/124
f 89/221/124 438/225/126 672/226/127 412/223/125
f 82/206/115 85/222/124 90/227/124 86/207/115
f 86/207/115 90/227/124 432/228/128 431/212/118
f 85/222/124 413/224/125 414/229/125 90/227/124
f 90/227/124 414/229/125 670/230/129 432/228/128
f 91/231/130 95/232/131 96/233/131 92/234/130
f 92/234/130 96/233/131 417/235/132 416/236/133
f 95/232/131 410/193/107 409/192/107 96/233/131
f 96/233/131 409/192/107 669/195/109 417/235/132
f 91/231/130 92/234/130 97/237/134 93/238/134
f 93/238/134 97/237/134 421/239/135 422/240/135
f 92/234/130 416/236/133 415/241/136 97/237/134
f 97/237/134 415/241/136 673/242/137 421/239/135
f 91/231/130 93/238/134 98/243/134 94/244/130
f 94/244/130 98/243/134 613/245/138 614/246/139
f 93/238/134 422/240/135 423/247/135 98/243/134
f 98/243/134 423/247/135 719/248/140 613/245/138
f 91/231/130 94/244/130 99/249/131 95/232/131
f 95/232/131 99/249/131 411/200/107 410/193/107
f 94/244/130 614/246/139 615/250/141 99/249/131
f 99/249/131 615/250/141 671/201/112 411/200/107
f 100/251/142 104/252/142 105/253/143 101/254/143
f 101/254/143 105/253/143 414/229/125 413/224/125
f 104/252/142 419/255/144 420/256/145 105/253/143
f 105/253/143 420/256/145 670/230/129 414/229/125
f 100/251/142 101/254/143 106/257/143 102/258/142
f 102/258/142 106/257/143 618/259/146 617/260/147
f 101/254/143 413/224/125 412/223/125 106/257/143
f 106/257/143 412/223/125 672/226/127 618/259/146
f 100/251/142 102/258/142 107/261/148 103/262/148
f 103/262/148 107/261/148 424/263/149 425/264/149
f 102/258/142 617/260/147 616/265/150 107/261/148
f 107/261/148 616/265/150 720/266/151 424/263/149
f 100/251/142 103/262/148 108/267/148 104/252/142
f 104/252/142 108/267/148 418/268/152 419/255/144
f 103/262/148 425/264/149 426/269/149 108/267/148
f 108/267/148 426/269/149 674/270/153 418/268/152
f 109/271/154 113/272/155 114/273/155 110/274/154
f 110/274/154 114/273/155 405/275/156 404/276/157
f 113/272/155 389/105/46 388/104/46 114/273/155
f 114/273/155 388/104/46 659/107/68 405/275/156
f 109/271/154 110/274/154 115/277/158 111/278/158
f 111/278/158 115/277/158 439/188/104 440/187/104
f 110/274/154 404/276/157 403/279/159 115/277/158
f 115/277/158 403/279/159 675/189/105 439/188/104
f 109/271/154 111/278/158 116/280/158 112/281/154
f 112/281/154 116/280/158 607/282/160 608/283/161
f 111/278/158 440/187/104 441/203/104 116/280/158
f 116/280/158 441/203/104 717/205/114 607/282/160
f 109/271/154 112/281/154 117/284/155 113/272/155
f 113/272/155 117/284/155 390/112/46 389/105/46
f 112/281/154 608/283/161 609/285/162 117/284/155
f 117/284/155 609/285/162 660/113/71 390/112/46
f 118/286/163 122/287/163 123/288/164 119/289/164
f 119/289/164 123/288/164 402/179/73 401/174/73
f 122/287/163 407/290/165 408/291/166 123/288/164
f 123/288/164 408/291/166 665/180/99 402/179/73
f 118/286/163 119/289/164 124/292/164 120/293/163
f 120/293/163 124/292/164 612/294/167 611/295/168
f 119/289/164 401/174/73 400/173/73 124/292/164
f 124/292/164 400/173/73 666/176/97 612/294/167
f 118/286/163 120/293/163 125/296/169 121/297/169
f 121/297/169 125/296/169 442/219/117 443/211/117
f 120/293/163 611/295/168 610/298/170 125/296/169
f 125/296/169 610/298/170 718/220/123 442/219/117
f 118/286/163 121/297/169 126/299/169 122/287/163
f 122/287/163 126/299/169 406/300/171 407/290/165
f 121/297/169 443/211/117 444/210/117 126/299/169
f 126/299/169 444/210/117 676/214/120 406/300/171
f 127/301/172 131/302/173 132/303/174 128/304/172
f 128/304/172 132/303/174 447/305/175 446/306/176
f 131/302/173 422/240/135 421/239/135 132/303/174
f 132/303/174 421/239/135 673/242/137 447/305/175
f 127/301/172 128/304/172 133/307/177 129/308/177
f 129/308/177 133/307/177 451/309/178 452/310/178
f 128/304/172 446/306/176 445/311/179 133/307/177
f 133/307/177 445/311/179 677/312/180 451/309/178
f 127/301/172 129/308/177 134/313/177 130/314/172
f 130/314/172 134/313/177 619/315/181 620/316/182
f 129/308/177 452/310/178 453/317/178 134/313/177
f 134/313/177 453/317/178 721/318/183 619/315/181
f 127/301/172 130/314/172 135/319/173 131/302/173
f 131/302/173 135/319/173 423/247/135 422/240/135
f 130/314/172 620/316/182 621/320/184 135/319/173
f 135/319/173 621/320/184 719/248/140 423/247/135
f 136/321/185 140/322/185 141/323/186 137/324/186
f 137/324/186 141/323/186 426/269/149 425/264/149
f 140/322/185 449/325/187 450/326/188 141/323/186
f 141/323/186 450/326/188 674/270/153 426/269/149
f 136/321/185 137/324/186 142/327/186 138/328/185
f 138/328/185 142/327/186 624/329/189 623/330/190
f 137/324/186 425/264/149 424/263/149 142/327/186
f 142/327/186 424/263/149 720/266/151 624/329/189
f 136/321/185 138/328/185 143/331/191 139/332/191
f 139/332/191 143/331/191 454/333/192 455/334/192
f 138/328/185 623/330/190 622/335/193 143/331/191
f 143/331/191 622/335/193 722/336/194 454/333/192
f 136/321/185 139/332/191 144/337/191 140/322/185
f 140/322/185 144/337/191 448/338/195 449/325/187
f 139/332/191 455/334/192 456/339/192 144/337/191
f 144/337/191 456/339/192 678/340/196 448/338/195
f 145/341/197 149/342/198 150/343/198 146/344/197
f 146/344/197 150/343/198 459/345/199 458/346/200
f 149/342/198 452/310/178 451/309/178 150/343/198
f 150/343/198 451/309/178 677/312/180 459/345/199
f 145/341/197 146/344/197 151/347/201 147/348/201
f 147/348/201 151/347/201 463/8/7 464/7/7
f 146/344/197 458/346/200 457/349/202 151/347/201
f 151/347/201 457/349/202 679/9/8 463/8/7
f 145/341/197 147/348/201 152/350/201 148/351/197
f 148/351/197 152/350/201 625/352/203 626/353/204
f 147/348/201 464/7/7 465/23/7 152/350/201
f 152/350/201 465/23/7 681/25/22 625/352/203
f 145/341/197 148/351/197 153/354/198 149/342/198
f 149/342/198 153/354/198 453/317/178 452/310/178
f 148/351/197 626/353/204 627/355/205 153/354/198
f 153/354/198 627/355/205 721/318/183 453/317/178
f 154/356/206 158/357/207 159/358/208 155/359/209
f 155/359/209 159/358/208 456/339/192 455/334/192
f 158/357/207 461/360/210 462/361/211 159/358/208
f 159/358/208 462/361/211 678/340/196 456/339/192
f 154/356/206 155/359/209 160/362/209 156/363/206
f 156/363/206 160/362/209 630/364/212 629/365/213
f 155/359/209 455/334/192 454/333/192 160/362/209
f 160/362/209 454/333/192 722/336/194 630/364/212
f 154/356/206 156/363/206 161/366/214 157/367/214
f 157/367/214 161/366/214 466/39/27 467/31/27
f 156/363/206 629/365/213 628/368/215 161/366/214
f 161/366/214 628/368/215 682/40/35 466/39/27
f 154/356/206 157/367/214 162/369/214 158/357/207
f 158/357/207 162/369/214 460/370/216 461/360/210
f 157/367/214 467/31/27 468/30/27 162/369/214
f 162/369/214 468/30/27 680/34/30 460/370/216
f 163/371/217 167/372/218 168/373/219 164/374/220
f 164/374/220 168/373/219 601/375/221 602/376/221
f 167/372/218 470/377/222 469/378/223 168/373/219
f 168/373/219 469/378/223 711/379/224 601/375/221
f 163/371/217 164/374/220 169/380/219 165/381/225
f 165/381/225 169/380/219 490/382/226 491/383/227
f 164/374/220 602/376/221 603/384/221 169/380/219
f 169/380/219 603/384/221 713/385/228 490/382/226
f 163/371/217 165/381/225 170/386/229 166/387/230
f 166/387/230 170/386/229 474/388/231 473/389/232
f 165/381/225 491/383/227 492/390/233 170/386/229
f 170/386/229 492/390/233 684/391/234 474/388/231
f 163/371/217 166/387/230 171/392/229 167/372/218
f 167/372/218 171/392/229 471/393/235 470/377/222
f 166/387/230 473/389/232 472/394/236 171/392/229
f 171/392/229 472/394/236 683/395/237 471/393/235
f 172/396/238 176/397/239 177/398/240 173/399/241
f 173/399/241 177/398/240 475/400/242 476/401/243
f 176/397/239 605/402/244 606/403/244 177/398/240
f 177/398/240 606/403/244 712/404/245 475/400/242
f 172/396/238 173/399/241 178/405/246 174/406/247
f 174/406/247 178/405/246 478/407/248 479/408/249
f 173/399/241 476/401/243 477/409/250 178/405/246
f 178/405/246 477/409/250 723/410/251 478/407/248
f 172/396/238 174/406/247 179/411/252 175/412/253
f 175/412/253 179/411/252 513/413/254 512/414/255
f 174/406/247 479/408/249 480/415/256 179/411/252
f 179/411/252 480/415/256 724/416/257 513/413/254
f 172/396/238 175/412/253 180/417/258 176/397/239
f 176/397/239 180/417/258 604/418/244 605/402/244
f 175/412/253 512/414/255 511/419/259 180/417/258
f 180/417/258 511/419/259 714/420/260 604/418/244
f 181/421/46 185/422/46 186/423/46 182/424/46
f 182/424/46 186/423/46 379/58/46 380/57/46
f 185/422/46 482/425/261 483/426/262 186/423/46
f 186/423/46 483/426/262 685/59/49 379/58/46
f 181/421/46 182/424/46 187/427/46 183/428/46
f 183/428/46 187/427/46 499/429/263 500/430/264
f 182/424/46 380/57/46 381/73/46 187/427/46
f 187/427/46 381/73/46 692/75/56 499/429/263
f 181/421/46 183/428/46 188/431/46 184/432/46
f 184/432/46 188/431/46 525/433/46 524/434/46
f 183/428/46 500/430/264 501/435/265 188/431/46
f 188/431/46 501/435/265 691/436/266 525/433/46
f 181/421/46 184/432/46 189/437/46 185/422/46
f 185/422/46 189/437/46 481/438/267 482/425/261
f 184/432/46 524/434/46 523/439/46 189/437/46
f 189/437/46 523/439/46 686/440/268 481/438/267
f 190/441/46 194/442/46 195/443/46 191/444/46
f 191/444/46 195/443/46 523/439/46 524/434/46
f 194/442/46 485/445/269 486/446/270 195/443/46
f 195/443/46 486/446/270 686/440/268 523/439/46
f 190/441/46 191/444/46 196/447/46 192/448/46
f 192/448/46 196/447/46 496/449/271 497/450/272
f 191/444/46 524/434/46 525/433/46 196/447/46
f 196/447/46 525/433/46 691/436/266 496/449/271
f 190/441/46 192/448/46 197/451/46 193/452/46
f 193/452/46 197/451/46 528/453/46 527/454/46
f 192/448/46 497/450/272 498/455/273 197/451/46
f 197/451/46 498/455/273 690/456/274 528/453/46
f 190/441/46 193/452/46 198/457/46 194/442/46
f 194/442/46 198/457/46 484/458/275 485/445/269
f 193/452/46 527/454/46 526/459/46 198/457/46
f 198/457/46 526/459/46 687/460/276 484/458/275
f 199/461/46 203/462/46 204/463/46 200/464/46
f 200/464/46 204/463/46 526/459/46 527/454/46
f 203/462/46 488/465/277 489/466/278 204/463/46
f 204/463/46 489/466/278 687/460/276 526/459/46
f 199/461/46 200/464/46 205/467/46 201/468/46
f 201/468/46 205/467/46 493/469/279 494/470/280
f 200/464/46 527/454/46 528/453/46 205/467/46
f 205/467/46 528/453/46 690/456/274 493/469/279
f 199/461/46 201/468/46 206/471/46 202/472/46
f 202/472/46 206/471/46 531/473/46 530/474/46
f 201/468/46 494/470/280 495/475/281 206/471/46
f 206/471/46 495/475/281 689/476/282 531/473/46
f 199/461/46 202/472/46 207/477/46 203/462/46
f 203/462/46 207/477/46 487/478/283 488/465/277
f 202/472/46 530/474/46 529/479/46 207/477/46
f 207/477/46 529/479/46 688/480/284 487/478/283
f 208/481/73 212/482/73 213/483/73 209/484/73
f 209/484/73 213/483/73 504/485/285 503/486/286
f 212/482/73 392/121/73 393/120/73 213/483/73
f 213/483/73 393/120/73 693/124/76 504/485/285
f 208/481/73 209/484/73 214/487/73 210/488/73
f 210/488/73 214/487/73 534/489/73 533/490/73
f 209/484/73 503/486/286 502/491/287 214/487/73
f 214/487/73 502/491/287 694/492/288 534/489/73
f 208/481/73 210/488/73 215/493/73 211/494/73
f 211/494/73 215/493/73 522/495/289 521/496/290
f 210/488/73 533/490/73 532/497/73 215/493/73
f 215/493/73 532/497/73 699/498/291 522/495/289
f 208/481/73 211/494/73 216/499/73 212/482/73
f 212/482/73 216/499/73 391/129/73 392/121/73
f 211/494/73 521/496/290 520/500/292 216/499/73
f 216/499/73 520/500/292 700/130/79 391/129/73
f 217/501/73 221/502/73 222/503/73 218/504/73
f 218/504/73 222/503/73 507/505/293 506/506/294
f 221/502/73 533/490/73 534/489/73 222/503/73
f 222/503/73 534/489/73 694/492/288 507/505/293
f 217/501/73 218/504/73 223/507/73 219/508/73
f 219/508/73 223/507/73 537/509/73 536/510/73
f 218/504/73 506/506/294 505/511/295 223/507/73
f 223/507/73 505/511/295 695/512/296 537/509/73
f 217/501/73 219/508/73 224/513/73 220/514/73
f 220/514/73 224/513/73 519/515/297 518/516/298
f 219/508/73 536/510/73 535/517/73 224/513/73
f 224/513/73 535/517/73 698/518/299 519/515/297
f 217/501/73 220/514/73 225/519/73 221/502/73
f 221/502/73 225/519/73 532/497/73 533/490/73
f 220/514/73 518/516/298 517/520/300 225/519/73
f 225/519/73 517/520/300 699/498/291 532/497/73
f 226/521/73 230/522/73 231/523/73 227/524/73
f 227/524/73 231/523/73 510/525/301 509/526/302
f 230/522/73 536/510/73 537/509/73 231/523/73
f 231/523/73 537/509/73 695/512/296 510/525/301
f 226/521/73 227/524/73 232/527/73 228/528/73
f 228/528/73 232/527/73 540/529/73 539/530/73
f 227/524/73 509/526/302 508/531/303 232/527/73
f 232/527/73 508/531/303 696/532/304 540/529/73
f 226/521/73 228/528/73 233/533/73 229/534/73
f 229/534/73 233/533/73 516/535/305 515/536/306
f 228/528/73 539/530/73 538/537/73 233/533/73
f 233/533/73 538/537/73 697/538/307 516/535/305
f 226/521/73 229/534/73 234/539/73 230/522/73
f 230/522/73 234/539/73 535/517/73 536/510/73
f 229/534/73 515/536/306 514/540/308 234/539/73
f 234/539/73 514/540/308 698/518/299 535/517/73
f 235/541/309 239/542/309 240/543/310 236/544/310
f 236/544/310 240/543/310 577/545/311 578/546/311
f 239/542/309 566/547/312 565/548/313 240/543/310
f 240/543/310 565/548/313 707/549/314 577/545/311
f 235/541/309 236/544/310 241/550/310 237/551/309
f 237/551/309 241/550/310 571/552/315 572/553/316
f 236/544/310 578/546/311 579/554/311 241/550/310
f 241/550/310 579/554/311 725/555/317 571/552/315
f 235/541/309 237/551/309 242/556/318 238/557/318
f 238/557/318 242/556/318 549/558/319 548/559/319
f 237/551/309 572/553/316 573/560/320 242/556/318
f 242/556/318 573/560/320 703/561/321 549/558/319
f 235/541/309 238/557/318 243/562/318 239/542/309
f 239/542/309 243/562/318 567/563/322 566/547/312
f 238/557/318 548/559/319 547/564/319 243/562/318
f 243/562/318 547/564/319 701/565/323 567/563/322
f 244/566/324 248/567/325 249/568/325 245/569/324
f 245/569/324 249/568/325 568/570/326 569/571/327
f 248/567/325 581/572/328 582/573/328 249/568/325
f 249/568/325 582/573/328 708/574/329 568/570/326
f 244/566/324 245/569/324 250/575/330 246/576/330
f 246/576/330 250/575/330 552/577/331 551/578/331
f 245/569/324 569/571/327 570/579/332 250/575/330
f 250/575/330 570/579/332 702/580/333 552/577/331
f 244/566/324 246/576/330 251/581/330 247/582/324
f 247/582/324 251/581/330 576/583/334 575/584/335
f 246/576/330 551/578/331 550/585/331 251/581/330
f 251/581/330 550/585/331 704/586/336 576/583/334
f 244/566/324 247/582/324 252/587/325 248/567/325
f 248/567/325 252/587/325 580/588/328 581/572/328
f 247/582/324 575/584/335 574/589/337 252/587/325
f 252/587/325 574/589/337 726/590/338 580/588/328
f 253/591/339 257/592/339 258/593/340 254/594/340
f 254/594/340 258/593/340 547/564/319 548/559/319
f 257/592/339 554/595/341 555/596/342 258/593/340
f 258/593/340 555/596/342 701/565/323 547/564/319
f 253/591/339 254/594/340 259/597/340 255/598/339
f 255/598/339 259/597/340 639/599/343 638/600/344
f 254/594/340 548/559/319 549/558/319 259/597/340
f 259/597/340 549/558/319 703/561/321 639/599/343
f 253/591/339 255/598/339 260/601/345 256/602/345
f 256/602/345 260/601/345 561/603/346 560/604/346
f 255/598/339 638/600/344 637/605/347 260/601/345
f 260/601/345 637/605/347 727/606/348 561/603/346
f 253/591/339 256/602/345 261/607/345 257/592/339
f 257/592/339 261/607/345 553/608/349 554/595/341
f 256/602/345 560/604/346 559/609/346 261/607/345
f 261/607/345 559/609/346 705/610/350 553/608/349
f 262/611/351 266/612/352 267/613/352 263/614/351
f 263/614/351 267/613/352 558/615/353 557/616/354
f 266/612/352 551/578/331 552/577/331 267/613/352
f 267/613/352 552/577/331 702/580/333 558/615/353
f 262/611/351 263/614/351 268/617/355 264/618/355
f 264/618/355 268/617/355 564/619/356 563/620/356
f 263/614/351 557/616/354 556/621/357 268/617/355
f 268/617/355 556/621/357 706/622/358 564/619/356
f 262/611/351 264/618/355 269/623/355 265/624/351
f 265/624/351 269/623/355 640/625/359 641/626/360
f 264/618/355 563/620/356 562/627/356 269/623/355
f 269/623/355 562/627/356 728/628/361 640/625/359
f 262/611/351 265/624/351 270/629/352 266/612/352
f 266/612/352 270/629/352 550/585/331 551/578/331
f 265/624/351 641/626/360 642/630/362 270/629/352
f 270/629/352 642/630/362 704/586/336 550/585/331
f 271/631/363 275/632/363 276/633/364 272/634/364
f 272/634/364 276/633/364 529/479/46 530/474/46
f 275/632/363 542/635/365 543/636/366 276/633/364
f 276/633/364 543/636/366 688/480/284 529/479/46
f 271/631/363 272/634/364 277/637/364 273/638/363
f 273/638/363 277/637/364 633/639/367 632/640/368
f 272/634/364 530/474/46 531/473/46 277/637/364
f 277/637/364 531/473/46 689/476/282 633/639/367
f 271/631/363 273/638/363 278/641/369 274/642/369
f 274/642/369 278/641/369 579/554/311 578/546/311
f 273/638/363 632/640/368 631/643/370 278/641/369
f 278/641/369 631/643/370 725/555/317 579/554/311
f 271/631/363 274/642/369 279/644/369 275/632/363
f 275/632/363 279/644/369 541/645/371 542/635/365
f 274/642/369 578/546/311 577/545/311 279/644/369
f 279/644/369 577/545/311 707/549/314 541/645/371
f 280/646/372 284/647/373 285/648/373 281/649/372
f 281/649/372 285/648/373 546/650/374 545/651/375
f 284/647/373 539/530/73 540/529/73 285/648/373
f 285/648/373 540/529/73 696/532/304 546/650/374
f 280/646/372 281/649/372 286/652/376 282/653/376
f 282/653/376 286/652/376 582/573/328 581/572/328
f 281/649/372 545/651/375 544/654/377 286/652/376
f 286/652/376 544/654/377 708/574/329 582/573/328
f 280/646/372 282/653/376 287/655/376 283/656/372
f 283/656/372 287/655/376 634/657/378 635/658/379
f 282/653/376 581/572/328 580/588/328 287/655/376
f 287/655/376 580/588/328 726/590/338 634/657/378
f 280/646/372 283/656/372 288/659/373 284/647/373
f 284/647/373 288/659/373 538/537/73 539/530/73
f 283/656/372 635/658/379 636/660/380 288/659/373
f 288/659/373 636/660/380 697/538/307 538/537/73
f 289/661/381 293/662/381 294/663/382 290/664/382
f 290/664/382 294/663/382 559/609/346 560/604/346
f 293/662/381 584/665/383 585/666/384 294/663/382
f 294/663/382 585/666/384 705/610/350 559/609/346
f 289/661/381 290/664/382 295/667/382 291/668/381
f 291/668/381 295/667/382 645/669/385 644/670/386
f 290/664/382 560/604/346 561/603/346 295/667/382
f 295/667/382 561/603/346 727/606/348 645/669/385
f 289/661/381 291/668/381 296/671/387 292/672/387
f 292/672/387 296/671/387 591/673/388 590/674/388
f 291/668/381 644/670/386 643/675/389 296/671/387
f 296/671/387 643/675/389 729/676/390 591/673/388
f 289/661/381 292/672/387 297/677/387 293/662/381
f 293/662/381 297/677/387 583/678/391 584/665/383
f 292/672/387 590/674/388 589/679/388 297/677/387
f 297/677/387 589/679/388 709/680/392 583/678/391
f 298/681/393 302/682/394 303/683/394 299/684/393
f 299/684/393 303/683/394 588/685/395 587/686/396
f 302/682/394 563/620/356 564/619/356 303/683/394
f 303/683/394 564/619/356 706/622/358 588/685/395
f 298/681/393 299/684/393 304/687/397 300/688/397
f 300/688/397 304/687/397 594/689/398 593/690/398
f 299/684/393 587/686/396 586/691/399 304/687/397
f 304/687/397 586/691/399 710/692/400 594/689/398
f 298/681/393 300/688/397 305/693/397 301/694/393
f 301/694/393 305/693/397 646/695/401 647/696/402
f 300/688/397 593/690/398 592/697/398 305/693/397
f 305/693/397 592/697/398 730/698/403 646/695/401
f 298/681/393 301/694/393 306/699/394 302/682/394
f 302/682/394 306/699/394 562/627/356 563/620/356
f 301/694/393 647/696/402 648/700/404 306/699/394
f 306/699/394 648/700/404 728/628/361 562/627/356
f 307/701/405 311/702/405 312/703/406 308/704/406
f 308/704/406 312/703/406 589/679/388 590/674/388
f 311/702/405 596/705/407 597/706/408 312/703/406
f 312/703/406 597/706/408 709/680/392 589/679/388
f 307/701/405 308/704/406 313/707/406 309/708/405
f 309/708/405 313/707/406 651/709/409 650/710/410
f 308/704/406 590/674/388 591/673/388 313/707/406
f 313/707/406 591/673/388 729/676/390 651/709/409
f 307/701/405 309/708/405 314/711/411 310/712/411
f 310/712/411 314/711/411 603/384/221 602/376/221
f 309/708/405 650/710/410 649/713/412 314/711/411
f 314/711/411 649/713/412 713/385/228 603/384/221
f 307/701/405 310/712/411 315/714/411 311/702/405
f 311/702/405 315/714/411 595/715/413 596/705/407
f 310/712/411 602/376/221 601/375/221 315/714/411
f 315/714/411 601/375/221 711/379/224 595/715/413
f 316/716/414 320/717/415 321/718/416 317/719/417
f 317/719/417 321/718/416 600/720/418 599/721/419
f 320/717/415 593/690/398 594/689/398 321/718/416
f 321/718/416 594/689/398 710/692/400 600/720/418
f 316/716/414 317/719/417 322/722/420 318/723/420
f 318/723/420 322/722/420 606/403/244 605/402/244
f 317/719/417 599/721/419 598/724/421 322/722/420
f 322/722/420 598/724/421 712/404/245 606/403/244
f 316/716/414 318/723/420 323/725/420 319/726/414
f 319/726/414 323/725/420 652/727/422 653/728/423
f 318/723/420 605/402/244 604/418/244 323/725/420
f 323/725/420 604/418/244 714/420/260 652/727/422
f 316/716/414 319/726/414 324/729/415 320/717/415
f 320/717/415 324/729/415 592/697/398 593/690/398
f 319/726/414 653/728/423 654/730/424 324/729/415
f 324/729/415 654/730/424 730/698/403 592/697/398
f 715/731/45 655/732/14 327/733/13 333/734/43
f 333/734/43 327/733/13 326/735/6 332/736/28
f 332/736/28 326/735/6 325/737/5 331/738/29
f 331/738/29 325/737/5 679/739/8 680/740/30
f 680/740/30 679/739/8 457/741/202 460/742/216
f 460/742/216 457/741/202 458/743/200 461/744/210
f 461/744/210 458/743/200 459/745/199 462/746/211
f 462/746/211 459/745/199 677/747/180 678/748/196
f 678/748/196 677/747/180 445/749/179 448/750/195
f 448/750/195 445/749/179 446/751/176 449/752/187
f 449/752/187 446/751/176 447/753/175 450/754/188
f 450/754/188 447/753/175 673/755/137 674/756/153
f 674/756/153 673/755/137 415/757/136 418/758/152
f 418/758/152 415/757/136 416/759/133 419/760/144
f 419/760/144 416/759/133 417/761/132 420/762/145
f 420/762/145 417/761/132 669/763/109 670/764/129
f 670/764/129 669/763/109 429/765/108 432/766/128
f 432/766/128 429/765/108 428/767/103 431/768/118
f 431/768/118 428/767/103 427/769/102 430/770/119
f 430/770/119 427/769/102 675/771/105 676/772/120
f 676/772/120 675/771/105 403/773/159 406/774/171
f 406/774/171 403/773/159 404/775/157 407/776/165
f 407/776/165 404/775/157 405/777/156 408/778/166
f 408/778/166 405/777/156 659/779/68 665/780/99
f 665/780/99 659/779/68 343/781/67 364/782/98
f 364/782/98 343/781/67 344/783/66 365/784/92
f 365/784/92 344/783/66 345/785/65 366/786/93
f 366/786/93 345/785/65 658/787/60 664/788/91
f 664/788/91 658/787/60 340/789/59 361/790/90
f 361/790/90 340/789/59 341/791/58 362/792/84
f 362/792/84 341/791/58 342/793/57 363/794/85
f 363/794/85 342/793/57 657/795/51 663/796/83
f 663/796/83 657/795/51 337/797/50 358/798/82
f 358/798/82 337/797/50 338/799/48 359/800/74
f 359/800/74 338/799/48 339/801/47 360/802/75
f 360/802/75 339/801/47 685/803/49 693/804/76
f 693/804/76 685/803/49 483/805/262 504/806/285
f 504/806/285 483/805/262 482/807/261 503/808/286
f 503/808/286 482/807/261 481/809/267 502/810/287
f 502/810/287 481/809/267 686/811/268 694/812/288
f 694/812/288 686/811/268 486/813/270 507/814/293
f 507/814/293 486/813/270 485/815/269 506/816/294
f 506/816/294 485/815/269 484/817/275 505/818/295
f 505/818/295 484/817/275 687/819/276 695/820/296
f 695/820/296 687/819/276 489/821/278 510/822/301
f 510/822/301 489/821/278 488/823/277 509/824/302
f 509/824/302 488/823/277 487/825/283 508/826/303
f 508/826/303 487/825/283 688/827/284 696/828/304
f 696/828/304 688/827/284 543/829/366 546/830/374
f 546/830/374 543/829/366 542/831/365 545/832/375
f 545/832/375 542/831/365 541/833/371 544/834/377
f 544/834/377 541/833/371 707/835/314 708/836/329
f 708/836/329 707/835/314 565/837/313 568/838/326
f 568/838/326 565/837/313 566/839/312 569/840/327
f 569/840/327 566/839/312 567/841/322 570/842/332
f 570/842/332 567/841/322 701/843/323 702/844/333
f 702/844/333 701/843/323 555/845/342 558/846/353
f 558/846/353 555/845/342 554/847/341 557/848/354
f 557/848/354 554/847/341 553/849/349 556/850/357
f 556/850/357 553/849/349 705/851/350 706/852/358
f 706/852/358 705/851/350 585/853/384 588/854/395
f 588/854/395 585/853/384 584/855/383 587/856/396
f 587/856/396 584/855/383 583/857/391 586/858/399
f 586/858/399 583/857/391 709/859/392 710/860/400
f 710/860/400 709/859/392 597/861/408 600/862/418
f 600/862/418 597/861/408 596/863/407 599/864/419
f 599/864/419 596/863/407 595/865/413 598/866/421
f 598/866/421 595/865/413 711/867/224 712/868/245
f 712/868/245 711/867/224 469/869/223 475/870/242
f 475/870/242 469/869/223 470/871/222 476/872/243
f 476/872/243 470/871/222 471/873/235 477/874/250
f 477/874/250 471/873/235 683/875/237 723/876/251
f 724/877/257 684/878/234 492/879/233 513/880/254
f 513/880/254 492/879/233 491/881/227 512/882/255
f 512/882/255 491/881/227 490/883/226 511/884/259
f 511/884/259 490/883/226 713/885/228 714/886/260
f 714/886/260 713/885/228 649/887/412 652/888/422
f 652/888/422 649/887/412 650/889/410 653/890/423
f 653/890/423 650/889/410 651/891/409 654/892/424
f 654/892/424 651/891/409 729/893/390 730/894/403
f 730/894/403 729/893/390 643/895/389 646/896/401
f 646/896/401 643/895/389 644/897/386 647/898/402
f 647/898/402 644/897/386 645/899/385 648/900/404
f 648/900/404 645/899/385 727/901/348 728/902/361
f 728/902/361 727/901/348 637/903/347 640/904/359
f 640/904/359 637/903/347 638/905/344 641/906/360
f 641/906/360 638/905/344 639/907/343 642/908/362
f 642/908/362 639/907/343 703/909/321 704/910/336
f 704/910/336 703/909/321 573/911/320 576/912/334
f 576/912/334 573/911/320 572/913/316 575/914/335
f 575/914/335 572/913/316 571/915/315 574/916/337
f 574/916/337 571/915/315 725/917/317 726/918/338
f 726/918/338 725/917/317 631/919/370 634/920/378
f 634/920/378 631/919/370 632/921/368 635/922/379
f 635/922/379 632/921/368 633/923/367 636/924/380
f 636/924/380 633/923/367 689/925/282 697/926/307
f 697/926/307 689/925/282 495/927/281 516/928/305
f 516/928/305 495/927/281 494/929/280 515/930/306
f 515/930/306 494/929/280 493/931/279 514/932/308
f 514/932/308 493/931/279 690/933/274 698/934/299
f 698/934/299 690/933/274 498/935/273 519/936/297
f 519/936/297 498/935/273 497/937/272 518/938/298
f 518/938/298 497/937/272 496/939/271 517/940/300
f 517/940/300 496/939/271 691/941/266 699/942/291
f 699/942/291 691/941/266 501/943/265 522/944/289
f 522/944/289 501/943/265 500/945/264 521/946/290
f 521/946/290 500/945/264 499/947/263 520/948/292
f 520/948/292 499/947/263 692/949/56 700/950/79
f 700/950/79 692/949/56 355/951/55 376/952/77
f 376/952/77 355/951/55 356/953/53 377/954/78
f 377/954/78 356/953/53 357/955/52 378/956/80
f 378/956/80 357/955/52 662/957/54 668/958/81
f 668/958/81 662/957/54 352/959/64 373/960/86
f 373/960/86 352/959/64 353/961/62 374/962/87
f 374/962/87 353/961/62 354/963/61 375/964/88
f 375/964/88 354/963/61 661/965/63 667/966/89
f 667/966/89 661/965/63 349/967/72 370/968/94
f 370/968/94 349/967/72 350/969/70 371/970/95
f 371/970/95 350/969/70 351/971/69 372/972/96
f 372/972/96 351/971/69 660/973/71 666/974/97
f 666/974/97 660/973/71 609/975/162 612/976/167
f 612/976/167 609/975/162 608/977/161 611/978/168
f 611/978/168 608/977/161 607/979/160 610/980/170
f 610/980/170 607/979/160 717/981/114 718/982/123
f 718/982/123 717/981/114 433/983/113 436/984/121
f 436/984/121 433/983/113 434/985/111 437/986/122
f 437/986/122 434/985/111 435/987/110 438/988/126
f 438/988/126 435/987/110 671/989/112 672/990/127
f 672/990/127 671/989/112 615/991/141 618/992/146
f 618/992/146 615/991/141 614/993/139 617/994/147
f 617/994/147 614/993/139 613/995/138 616/996/150
f 616/996/150 613/995/138 719/997/140 720/998/151
f 720/998/151 719/997/140 621/999/184 624/1000/189
f 624/1000/189 621/999/184 620/1001/182 623/1002/190
f 623/1002/190 620/1001/182 619/1003/181 622/1004/193
f 622/1004/193 619/1003/181 721/1005/183 722/1006/194
f 722/1006/194 721/1005/183 627/1007/205 630/1008/212
f 630/1008/212 627/1007/205 626/1009/204 629/1010/213
f 629/1010/213 626/1009/204 625/1011/203 628/1012/215
f 628/1012/215 625/1011/203 681/1013/22 682/1014/35
f 682/1014/35 681/1013/22 346/1015/21 367/1016/33
f 367/1016/33 346/1015/21 347/1017/17 368/1018/34
f 368/1018/34 347/1017/17 348/1019/16 369/1020/40
f 369/1020/40 348/1019/16 656/1021/19 716/1022/41
f 656/1021/19 330/1023/18 336/1024/38 716/1022/41
f 330/1023/18 329/1025/12 335/1026/39 336/1024/38
f 329/1025/12 328/1027/11 334/1028/44 335/1026/39
f 328/1027/11 655/732/14 715/731/45 334/1028/44
f 684/878/234 724/877/257 480/1029/256 474/1030/231
f 474/1030/231 480/1029/256 479/1031/249 473/1032/232
f 473/1032/232 479/1031/249 478/1033/248 472/1034/236
f 472/1034/236 478/1033/248 723/876/251 683/875/237
