# Blender 5.2.2 LTS
# www.blender.org
mtllib Valla.mtl
o fence_Cube
v -0.270747 0.053285 0.364196
v -0.296057 6.376795 0.408324
v -0.270747 0.053285 -0.270020
v -0.360487 6.235844 -0.296058
v 0.270747 0.053285 0.271475
v 0.296057 6.497612 0.510253
v 0.270747 0.053285 -0.351072
v 0.296057 6.376795 -0.073998
v -0.243028 2.112122 0.283701
v -0.379856 4.268957 0.406355
v -0.290546 4.268957 -0.264048
v -0.243028 2.213111 -0.319695
v 0.379856 4.268957 -0.174735
v 0.405005 2.213111 -0.319695
v 0.290546 4.268957 0.495668
v 0.405005 2.106140 0.319448
v 0.303187 0.053284 -9.828137
v 0.337913 6.431638 -9.728743
v 0.303187 0.053284 -9.193925
v 0.397018 6.465216 -9.024361
v -0.238305 0.053284 -9.735416
v -0.266378 6.437199 -9.830671
v -0.238305 0.053284 -9.112873
v -0.274361 6.478242 -9.246420
v 0.275468 2.112121 -9.718940
v 0.412299 4.268956 -9.726772
v 0.322986 4.268957 -9.056369
v 0.275468 2.213111 -9.115544
v -0.347417 4.268957 -9.145679
v -0.372565 2.213111 -9.115544
v -0.258107 4.268956 -9.816085
v -0.372565 2.106139 -9.754683
v 0.340961 4.713386 1.603487
v 0.476673 5.598450 1.457139
v 0.473900 4.688900 -11.069550
v 0.343553 5.563932 -10.910925
v 0.666292 4.683115 1.603487
v 0.802008 5.568176 1.457139
v 0.799412 4.717628 -11.064342
v 0.669065 5.592663 -10.905718
v 0.739060 4.620538 -2.450205
v 0.655454 5.397976 -2.419755
v 1.016899 4.612555 -2.642785
v 0.933290 5.469890 -2.688966
v 0.344644 2.888336 1.408103
v 0.472711 3.758049 1.649955
v 0.471901 3.562494 -11.003801
v 0.345431 4.447469 -10.945661
v 0.670254 2.861745 1.398517
v 0.798321 3.731456 1.640369
v 0.797537 3.590507 -11.003242
v 0.671067 4.475482 -10.945104
v 0.360402 3.092085 -4.337915
v 0.271269 3.921360 -4.424070
v 0.656611 3.075312 -4.193739
v 0.567478 3.986381 -4.176900
v 0.344644 1.652219 1.445244
v 0.472711 2.532484 1.630858
v 0.471901 1.712855 -10.990273
v 0.345431 2.599297 -10.989058
v 0.670254 1.625196 1.437381
v 0.798321 2.505460 1.622995
v 0.797537 1.740852 -10.991515
v 0.671067 2.627294 -10.990301
v 0.482677 1.598703 -2.213687
v 0.406225 2.374803 -2.110114
v 0.736739 1.658005 -2.109254
v 0.660288 2.501729 -2.089996
v 0.374209 2.391320 -6.548977
v 0.768755 1.799357 -6.549711
v 0.476091 1.766551 -6.604498
v 0.666874 2.449541 -6.538910
vn -0.9906 -0.0374 -0.1320
vn 0.1320 -0.0114 -0.9912
vn 0.9907 0.0331 0.1320
vn -0.1321 0.0043 0.9912
vn -0.0000 -1.0000 -0.0000
vn -0.1628 0.9662 -0.1998
vn 0.1687 0.0362 0.9850
vn -0.0557 -0.0840 0.9949
vn 0.9980 -0.0627 -0.0081
vn 0.9979 -0.0645 -0.0024
vn 0.9979 -0.0653 -0.0000
vn 0.9986 0.0521 0.0087
vn -0.1480 -0.0208 -0.9888
vn -0.0000 0.0703 -0.9975
vn -0.9999 0.0134 0.0006
vn -0.9999 0.0131 0.0017
vn -0.9999 0.0135 -0.0000
vn -0.9980 -0.0627 -0.0105
vn 0.9907 0.0342 0.1320
vn -0.1319 0.0495 0.9900
vn -0.9912 -0.0047 -0.1321
vn 0.1321 0.0036 -0.9912
vn 0.0209 0.9973 -0.0698
vn -0.1686 0.0499 -0.9844
vn 0.0553 -0.0313 -0.9980
vn -0.9980 -0.0628 0.0081
vn -0.9979 -0.0645 0.0024
vn -0.9979 -0.0653 -0.0000
vn -0.9986 0.0526 -0.0088
vn 0.1480 -0.0340 0.9884
vn -0.0000 0.0146 0.9999
vn -0.0000 0.0147 0.9999
vn -0.0000 0.0013 1.0000
vn 0.9999 0.0134 -0.0005
vn 0.9999 0.0131 -0.0017
vn 0.9999 0.0135 -0.0000
vn 0.9979 -0.0633 0.0106
vn -0.9879 -0.1524 0.0292
vn -0.0000 0.1784 -0.9840
vn 0.9870 -0.1375 0.0838
vn 0.0150 0.1609 0.9869
vn -0.0926 -0.9956 0.0137
vn -0.2790 0.9598 -0.0316
vn -0.0882 0.9959 0.0177
vn -0.0335 -0.9994 -0.0069
vn 0.9882 0.1515 -0.0236
vn -0.9858 0.1346 -0.0999
vn -0.9937 -0.1093 -0.0243
vn -0.0039 0.0650 -0.9979
vn 0.9952 0.0973 0.0013
vn 0.0064 -0.2688 0.9632
vn -0.0393 -0.9986 -0.0355
vn 0.0825 0.9958 0.0404
vn -0.2657 0.9618 0.0654
vn 0.0856 -0.9940 -0.0687
vn 0.9949 0.0968 0.0279
vn -0.9942 -0.1075 -0.0065
vn -0.9900 -0.1412 0.0027
vn -0.0039 0.0008 -1.0000
vn 0.9958 0.0898 0.0195
vn 0.0064 -0.2072 0.9783
vn 0.2185 -0.9756 0.0225
vn 0.0826 0.9966 -0.0041
vn -0.4462 0.8949 -0.0112
vn 0.1184 -0.9922 -0.0381
vn 0.9879 0.1546 0.0120
vn -0.9950 -0.0932 -0.0362
vn 0.9885 0.1512 0.0050
vn 0.9895 0.1446 0.0061
vn 0.9879 0.1547 0.0044
vn 0.0857 -0.9962 0.0121
vn -0.1962 0.9798 0.0389
vn -0.9870 -0.1605 -0.0047
vn -0.9870 -0.1607 -0.0029
vn -0.9958 0.0395 0.0832
vn 0.3087 0.0576 -0.9494
vn 1.0000 -0.0025 0.0005
vn -0.1684 -0.0060 0.9857
vn -0.1475 0.9723 -0.1811
vn -0.0552 -0.0197 0.9983
vn -0.1318 -0.0646 0.9892
vn 0.9980 -0.0619 -0.0104
vn 0.9912 0.0028 0.1321
vn -0.0000 0.0145 -0.9999
vn 0.1320 0.0299 -0.9908
vn -0.9999 0.0129 0.0022
vn -0.9911 -0.0193 -0.1320
vn 0.9961 -0.0324 -0.0820
vn -0.3141 -0.0032 0.9494
vn -0.9994 0.0323 -0.0159
vn 0.1663 -0.0060 -0.9861
vn 0.0361 0.9981 -0.0506
vn 0.0551 -0.0058 -0.9985
vn 0.1320 -0.0120 -0.9912
vn -0.9980 -0.0620 0.0104
vn -0.9912 0.0102 -0.1320
vn -0.0000 0.0012 1.0000
vn -0.1320 -0.0255 0.9909
vn 0.9999 0.0129 -0.0022
vn 0.9909 -0.0267 0.1320
vn -0.9935 -0.1082 0.0344
vn 0.9947 0.0986 0.0292
vn -0.0183 -0.9997 0.0151
vn 0.0926 0.9946 -0.0472
vn -0.2256 0.9738 0.0273
vn 0.0881 -0.9960 -0.0147
vn 0.9950 0.0954 -0.0306
vn -0.9936 -0.1053 -0.0404
vn -0.9899 -0.1400 -0.0225
vn 0.9901 -0.1332 -0.0451
vn -0.0824 -0.9959 -0.0378
vn -0.2413 0.9698 0.0341
vn -0.0856 0.9932 0.0791
vn -0.0195 -0.9969 -0.0758
vn 0.9899 0.1398 0.0253
vn -0.9901 0.1356 0.0365
vn -0.9870 -0.1608 -0.0011
vn 0.9900 -0.1363 -0.0367
vn -0.0830 -0.9965 -0.0108
vn -0.4448 0.8951 -0.0298
vn -0.1953 0.9807 0.0051
vn 0.2386 -0.9707 -0.0292
vn 0.9959 0.0902 0.0004
vn -0.9899 0.1416 0.0116
vn 0.9900 0.1412 0.0066
vn 0.1088 -0.9940 0.0138
vn -0.0854 0.9952 0.0472
vn -0.9951 -0.0989 0.0068
vt 0.625581 0.098238
vt 0.929106 0.401762
vt 0.625581 0.401762
vt 0.929106 0.098238
vt 0.083041 0.171733
vt 0.162929 0.234610
vt 0.083041 0.251155
vt 0.261276 0.216940
vt 0.180638 0.151351
vt 0.261276 0.138965
vt 0.126479 0.253721
vt 0.083041 0.370931
vt 0.083041 0.251282
vt 0.258424 0.247779
vt 0.215002 0.366012
vt 0.215002 0.245232
vt 0.170047 0.253713
vt 0.126606 0.370540
vt 0.126606 0.251282
vt 0.304848 0.141338
vt 0.261403 0.260339
vt 0.261403 0.138965
vt 0.304845 0.265273
vt 0.261403 0.382039
vt 0.261403 0.262839
vt 0.214875 0.247642
vt 0.171434 0.366199
vt 0.171435 0.245232
vt 0.171307 0.138965
vt 0.171434 0.245105
vt 0.126479 0.373370
vt 0.258424 0.368559
vt 0.170048 0.372971
vt 0.304848 0.262712
vt 0.304845 0.384473
vt 0.214875 0.368609
s 1
usemtl Material.003
f 10/1/1 4/2/1 11/3/1
f 4/4/2 13/3/2 11/1/2
f 8/4/3 15/3/3 13/1/3
f 15/1/4 2/2/4 10/3/4
f 3/1/5 5/2/5 1/3/5
f 8/5/6 2/6/6 6/7/6
f 5/1/7 9/2/7 1/3/7
f 15/4/8 9/3/8 16/1/8
f 7/1/9 16/2/10 5/3/11
f 14/1/12 15/2/12 16/3/12
f 12/4/13 7/3/13 3/1/13
f 12/1/14 13/2/14 14/3/14
f 9/4/15 3/3/16 1/1/17
f 10/4/18 12/3/18 9/1/18
f 18/4/19 27/3/19 26/1/19
f 27/1/20 24/2/20 29/3/20
f 29/1/21 22/2/21 31/3/21
f 31/1/22 18/2/22 26/3/22
f 19/1/5 21/2/5 17/3/5
f 24/8/23 18/9/23 22/10/23
f 21/1/24 25/2/24 17/3/24
f 31/4/25 25/3/25 32/1/25
f 23/1/26 32/2/27 21/3/28
f 30/1/29 31/2/29 32/3/29
f 28/4/30 23/3/30 19/1/30
f 28/1/31 29/2/32 30/3/33
f 25/4/34 19/3/35 17/1/36
f 26/4/37 28/3/37 25/1/37
f 41/1/38 36/2/38 35/3/38
f 35/11/39 40/12/39 39/13/39
f 43/1/40 38/2/40 37/3/40
f 37/14/41 34/15/41 33/16/41
f 41/1/42 37/2/42 33/3/42
f 42/4/43 38/3/43 44/1/43
f 36/4/44 44/3/44 40/1/44
f 35/1/45 43/2/45 41/3/45
f 40/4/46 43/3/46 39/1/46
f 34/4/47 41/3/47 33/1/47
f 54/4/48 47/3/48 53/1/48
f 47/17/49 52/18/49 51/19/49
f 56/4/50 49/3/50 55/1/50
f 49/20/51 46/21/51 45/22/51
f 55/4/52 45/3/52 53/1/52
f 56/1/53 46/2/53 50/3/53
f 52/1/54 54/2/54 56/3/54
f 51/4/55 53/3/55 47/1/55
f 51/1/56 56/2/56 55/3/56
f 45/1/57 54/2/57 53/3/57
f 71/1/58 60/2/58 59/3/58
f 59/23/59 64/24/59 63/25/59
f 68/4/60 61/3/60 67/1/60
f 61/26/61 58/27/61 57/28/61
f 67/4/62 57/3/62 65/1/62
f 68/1/63 58/2/63 62/3/63
f 72/1/64 66/2/64 68/3/64
f 70/4/65 65/3/65 71/1/65
f 72/4/66 67/3/66 70/1/66
f 57/1/67 66/2/67 65/3/67
f 63/1/68 72/2/69 70/3/70
f 63/4/71 71/3/71 59/1/71
f 64/1/72 69/2/72 72/3/72
f 65/1/73 69/2/74 71/3/74
f 10/1/75 2/4/75 4/2/75
f 4/4/76 8/2/76 13/3/76
f 8/4/77 6/2/77 15/3/77
f 15/1/78 6/4/78 2/2/78
f 3/1/5 7/4/5 5/2/5
f 8/5/79 4/29/79 2/6/79
f 5/1/80 16/4/80 9/2/80
f 15/4/81 10/2/81 9/3/81
f 7/1/9 14/4/82 16/2/10
f 14/1/83 13/4/83 15/2/83
f 12/4/84 14/2/84 7/3/84
f 12/1/85 11/4/85 13/2/85
f 9/4/15 12/2/86 3/3/16
f 10/4/87 11/2/87 12/3/87
f 18/4/88 20/2/88 27/3/88
f 27/1/89 20/4/89 24/2/89
f 29/1/90 24/4/90 22/2/90
f 31/1/91 22/4/91 18/2/91
f 19/1/5 23/4/5 21/2/5
f 24/8/92 20/30/92 18/9/92
f 21/1/93 32/4/93 25/2/93
f 31/4/94 26/2/94 25/3/94
f 23/1/26 30/4/95 32/2/27
f 30/1/96 29/4/96 31/2/96
f 28/4/31 30/2/33 23/3/97
f 28/1/98 27/4/98 29/2/98
f 25/4/34 28/2/99 19/3/35
f 26/4/100 27/2/100 28/3/100
f 41/1/101 42/4/101 36/2/101
f 35/11/39 36/31/39 40/12/39
f 43/1/102 44/4/102 38/2/102
f 37/14/41 38/32/41 34/15/41
f 41/1/103 43/4/103 37/2/103
f 42/4/104 34/2/104 38/3/104
f 36/4/105 42/2/105 44/3/105
f 35/1/106 39/4/106 43/2/106
f 40/4/107 44/2/107 43/3/107
f 34/4/108 42/2/108 41/3/108
f 54/4/109 48/2/109 47/3/109
f 47/17/49 48/33/49 52/18/49
f 56/4/110 50/2/110 49/3/110
f 49/20/51 50/34/51 46/21/51
f 55/4/111 49/2/111 45/3/111
f 56/1/112 54/4/112 46/2/112
f 52/1/113 48/4/113 54/2/113
f 51/4/114 55/2/114 53/3/114
f 51/1/115 52/4/115 56/2/115
f 45/1/116 46/4/116 54/2/116
f 71/1/74 69/4/74 60/2/117
f 59/23/59 60/35/59 64/24/59
f 68/4/118 62/2/118 61/3/118
f 61/26/61 62/36/61 58/27/61
f 67/4/119 61/2/119 57/3/119
f 68/1/120 66/4/120 58/2/120
f 72/1/121 69/4/121 66/2/121
f 70/4/122 67/2/122 65/3/122
f 72/4/123 68/2/123 67/3/123
f 57/1/124 58/4/124 66/2/124
f 63/1/68 64/4/125 72/2/69
f 63/4/126 70/2/126 71/3/126
f 64/1/127 60/4/127 69/2/127
f 65/1/128 66/4/128 69/2/128
